<svg version="1.1" id="Layer_1" xmlns="http://www.w3.org/2000/svg" xmlns:xlink="http://www.w3.org/1999/xlink" x="0px" y="0px"
	 width="100%" viewBox="0 0 392 392" enable-background="new 0 0 392 392" xml:space="preserve">
<path fill="#FEFEFE" opacity="1.000000" stroke="none" 
	d="
M1.000004,225.000000 
	C1.000000,206.645767 1.000000,188.291550 1.358288,169.769379 
	C2.130286,169.102188 2.850153,168.638596 2.913076,168.098480 
	C4.636411,153.305618 8.611012,139.084351 14.040369,125.278374 
	C22.368858,104.100418 33.775887,84.584641 49.061863,67.802544 
	C58.537773,57.399170 69.284355,47.940910 80.434372,39.317566 
	C105.969833,19.568642 135.053711,7.673509 167.032364,2.925929 
	C167.767365,2.816813 168.347580,1.665291 169.000000,0.999999 
	C187.354233,1.000000 205.708450,1.000000 224.230621,1.358288 
	C224.897781,2.130285 225.361343,2.850154 225.901428,2.913073 
	C240.694290,4.636427 254.915573,8.611005 268.721527,14.040363 
	C289.899506,22.368837 309.415314,33.775856 326.197418,49.061817 
	C336.600800,58.537724 346.059052,69.284325 354.682434,80.434334 
	C374.431458,105.969757 386.326416,135.053726 391.074097,167.032349 
	C391.183197,167.767349 392.334717,168.347580 393.000000,169.000000 
	C393.000000,187.354233 393.000000,205.708450 392.641724,224.230637 
	C391.869720,224.897812 391.149811,225.361359 391.086884,225.901428 
	C389.363495,240.694275 385.388672,254.915436 379.959717,268.721558 
	C371.631775,289.899872 360.224396,309.415283 344.938293,326.197235 
	C335.462280,336.600555 324.715729,346.058899 313.565735,354.682312 
	C288.030304,374.431396 258.946320,386.326385 226.967667,391.074097 
	C226.232666,391.183197 225.652420,392.334717 225.000000,393.000000 
	C206.645767,393.000000 188.291550,393.000000 169.769363,392.641724 
	C169.103271,391.869781 168.640518,391.149292 168.101822,391.087158 
	C153.328049,389.383575 139.148346,385.365265 125.352623,379.971283 
	C104.186913,371.695740 84.769791,360.234100 67.922104,345.086884 
	C57.827332,336.010986 49.311092,325.179321 40.490822,315.063721 
	C139.866577,298.698303 238.759155,299.762970 337.671265,316.571259 
	C333.639893,314.276672 329.552429,312.569397 325.379700,311.104919 
	C294.449005,300.249023 262.557251,293.856659 229.952271,290.998596 
	C225.960388,290.648651 224.278442,289.184204 224.229050,285.394684 
	C224.203003,283.396759 224.013107,281.396179 224.077042,279.402588 
	C224.551285,264.615631 228.349091,250.513168 232.727783,236.493561 
	C234.473221,230.905029 239.610611,225.428970 233.963623,218.760696 
	C237.987808,220.790787 241.491653,222.840546 244.391663,225.539215 
	C259.462616,239.563873 278.215210,245.524734 297.558777,250.316772 
	C302.252686,251.479614 306.150848,250.133469 308.148041,245.973816 
	C311.131775,239.759384 314.355988,233.387451 315.719727,226.722763 
	C318.949219,210.940155 321.265900,194.964142 323.666016,179.023331 
	C324.225800,175.305466 325.592773,174.299606 329.320312,174.049713 
	C350.370148,172.638535 366.278473,152.039658 362.693726,131.251877 
	C359.884674,114.962341 346.919495,102.179565 331.123383,100.125687 
	C314.400146,97.951271 298.761383,106.533882 291.917786,121.641838 
	C285.072937,136.752533 288.753448,154.287613 301.522980,165.218475 
	C304.427063,167.704376 304.511383,169.449478 302.521820,172.208084 
	C297.153748,179.651169 291.878052,187.160843 286.580322,194.623505 
	C280.213409,171.799347 263.792908,163.845688 241.536148,164.073944 
	C244.489349,163.441818 247.442535,162.809677 250.478256,162.159882 
	C243.251633,148.424744 241.568802,146.157455 231.732574,142.143646 
	C229.850021,141.375427 227.578781,139.020569 227.394760,137.204407 
	C227.093811,134.234360 228.359619,131.105545 229.020523,127.760185 
	C232.414429,129.128494 235.281189,130.459229 238.261459,131.447662 
	C243.680832,133.245056 246.587646,130.907074 248.787109,125.710045 
	C250.670471,121.259987 249.860794,114.206551 257.616364,113.786819 
	C258.107452,113.760239 258.823090,111.935814 258.870392,110.921494 
	C258.962830,108.939133 258.958771,106.859222 258.462463,104.958672 
	C256.388214,97.015488 262.667267,90.096718 261.161316,82.218292 
	C261.052917,81.651276 262.276520,80.603409 263.085724,80.127541 
	C266.118469,78.344063 266.775787,75.459923 265.349396,72.828041 
	C263.117767,68.710297 260.921570,63.787659 257.274139,61.400349 
	C251.258911,57.463306 244.338348,54.347195 237.370132,52.541931 
	C221.333069,48.387180 206.641037,51.067364 194.600891,63.956512 
	C193.274399,63.593250 192.343964,63.221684 191.381256,62.977219 
	C183.970459,61.095371 176.561996,58.674461 170.693298,66.635864 
	C170.074036,67.475952 166.655502,66.678055 164.741684,66.030853 
	C162.340530,65.218849 160.094818,62.702316 157.883118,62.820068 
	C152.353241,63.114487 146.602066,63.742203 141.480652,65.671890 
	C137.949448,67.002426 133.078323,67.963432 131.863373,73.250900 
	C131.430161,73.643951 131.131714,73.813156 130.430206,73.975235 
	C125.736397,74.147430 119.815598,80.263420 119.644333,84.716492 
	C119.640747,84.809784 119.895546,84.913010 120.018066,85.306671 
	C119.673096,86.072021 119.339867,86.542297 118.604813,87.010101 
	C114.312325,88.817223 113.643433,93.111954 116.781837,97.340942 
	C116.920670,98.113281 116.920540,98.569229 116.640198,99.315689 
	C116.772041,105.846909 117.184097,112.087608 117.605583,118.471062 
	C119.245750,117.781120 120.849495,117.106499 122.455353,116.483086 
	C122.457474,116.534286 122.537727,116.598045 122.365364,117.054550 
	C121.564110,121.170982 120.685883,124.815804 120.462410,128.500320 
	C120.397659,129.567841 122.210106,130.749207 123.119888,131.899963 
	C123.077789,131.921555 123.065987,131.827667 123.220886,132.139160 
	C127.062309,136.283646 130.748840,140.116669 134.435379,143.949692 
	C134.253555,144.453232 134.071732,144.956772 133.889923,145.460327 
	C137.273621,144.986267 140.755905,144.860229 144.012558,143.937653 
	C147.105545,143.061478 149.962463,141.351868 152.967300,140.365692 
	C152.867371,141.172073 152.723328,141.621475 152.416260,142.234955 
	C152.090439,142.683365 152.051025,142.983902 152.177597,143.491714 
	C152.220184,143.682755 151.990265,143.999588 151.615753,144.043304 
	C149.175598,147.074036 147.035950,150.013321 145.068802,153.063858 
	C143.612259,155.322571 142.380112,157.725983 141.024261,160.033356 
	C141.000534,160.001770 141.061447,160.052017 140.656342,160.024689 
	C137.577438,159.983963 134.758240,159.803665 134.361847,163.515427 
	C133.876953,168.056091 133.521194,172.498352 128.590607,174.964905 
	C127.729698,175.395569 127.932716,177.952942 127.584084,179.534332 
	C127.523819,179.540573 127.454742,179.640137 127.101852,179.461334 
	C124.500488,180.192657 122.252007,181.102768 119.798653,181.732422 
	C118.057014,180.970779 116.520264,180.489563 114.611694,180.007828 
	C113.495987,180.006500 112.752083,180.005692 111.665833,179.967621 
	C109.880219,178.953583 108.436966,177.976791 107.034470,176.637360 
	C107.719063,174.452026 108.362877,172.629303 108.710579,171.644928 
	C106.348442,171.775177 104.720116,171.864960 103.055573,171.530487 
	C103.011482,169.396606 103.003601,167.686981 103.189804,165.727600 
	C103.565369,165.370483 103.746857,165.263123 103.983795,165.196655 
	C104.039246,165.237549 103.794807,165.297577 104.159142,165.023071 
	C105.192108,164.144501 105.860741,163.540466 106.776596,162.944000 
	C107.379082,162.447983 107.734344,161.944382 108.372253,161.235626 
	C109.820961,159.363922 110.987015,157.697403 112.497726,155.966705 
	C116.709518,152.112396 117.260315,149.991074 114.862808,147.579193 
	C114.869469,146.130035 114.914352,145.075623 115.246361,143.824860 
	C117.062256,140.300079 117.986153,137.172775 112.998840,136.005859 
	C112.997253,136.001282 112.992493,135.993225 113.020470,135.558807 
	C112.696960,132.403900 114.347610,128.330261 108.722298,128.986847 
	C108.513176,128.940933 108.085953,128.911926 107.983353,128.646103 
	C107.408005,128.081161 106.935257,127.782028 106.395996,127.255325 
	C106.139656,126.771622 105.996841,126.491531 105.887062,125.821693 
	C104.885178,124.998268 103.897270,124.540627 102.955872,124.047394 
	C103.002373,124.011818 102.924873,124.099953 102.927811,123.754379 
	C101.717361,121.497566 100.942245,118.124931 97.665268,121.929253 
	C96.869514,121.808868 96.421783,121.693291 95.766037,121.386543 
	C95.006477,121.157356 94.454941,121.119339 93.458801,121.090546 
	C88.192474,122.252991 83.370743,123.406197 78.217026,124.635910 
	C66.037727,133.025894 62.972763,146.859756 70.618187,157.939148 
	C70.890717,158.446747 71.126038,158.694809 71.419861,159.250122 
	C72.821060,160.838501 74.163750,162.119629 75.551872,163.407684 
	C75.597305,163.414627 75.624756,163.502350 75.797729,163.778610 
	C77.772461,165.200974 79.443512,166.936249 81.403107,167.371017 
	C85.531792,168.287018 86.761871,170.715515 87.313072,174.604904 
	C88.234718,181.108185 89.793877,187.521133 91.033783,194.307251 
	C91.091805,195.075729 91.200729,195.509094 91.244804,196.311447 
	C91.726387,198.571564 92.272820,200.462662 92.778740,202.524841 
	C92.738220,202.695892 92.914581,203.000031 92.869614,203.389053 
	C93.715004,206.090164 94.605362,208.402252 95.462479,210.810471 
	C95.429230,210.906601 95.496231,211.098679 95.493744,211.468674 
	C95.677887,212.552353 95.864517,213.266052 95.792145,214.139923 
	C95.359390,214.870880 95.185631,215.441666 94.684738,216.064941 
	C93.986267,216.805145 93.614929,217.492828 93.243591,218.180527 
	C93.633484,218.322937 94.023369,218.465347 94.413254,218.607758 
	C94.604652,217.734390 94.796043,216.861023 95.353790,215.987549 
	C96.207413,215.959503 96.694672,215.931595 97.395798,215.994751 
	C97.837204,216.322449 98.115089,216.438782 98.425598,216.358704 
	C98.407883,216.282608 98.478943,216.421432 98.477905,216.753220 
	C98.898796,217.573669 99.320732,218.062317 99.734970,218.688019 
	C99.727287,218.825058 99.957916,218.973953 99.922058,219.269409 
	C99.906227,219.762253 99.926247,219.959641 100.005280,220.349152 
	C100.204025,220.788925 100.411522,220.948395 100.830841,221.198898 
	C100.974892,221.378098 101.115257,221.815994 101.076431,222.208527 
	C101.963379,223.800323 102.889160,224.999603 103.876305,226.558105 
	C104.602692,230.277115 106.296562,233.178650 109.978752,232.651642 
	C113.179626,232.193527 115.918114,230.168259 115.183929,225.649933 
	C115.100449,224.520157 115.027908,223.768539 115.241837,222.890106 
	C116.378166,222.164810 117.228020,221.566345 118.279785,221.118713 
	C118.636063,221.563629 118.790428,221.857727 118.977623,222.325104 
	C119.099106,222.730759 119.256760,222.898178 119.653748,223.226517 
	C119.882317,223.631851 119.940559,223.811264 119.981934,224.389160 
	C119.797630,228.471008 121.121864,231.119232 124.988922,232.008957 
	C125.000244,232.007217 124.985580,232.024414 124.985077,232.335388 
	C125.369209,233.080460 125.753845,233.514542 126.343842,234.094223 
	C126.677338,234.544312 126.805473,234.848785 126.929932,235.541931 
	C127.246429,237.199905 127.311447,238.612762 127.930885,239.713699 
	C130.627075,244.505600 132.202316,249.218323 127.644341,254.058868 
	C126.012169,254.176727 124.750687,254.326782 123.490990,254.313034 
	C117.502419,254.247726 111.507317,253.926254 105.528786,254.124924 
	C102.069763,254.239883 99.063042,255.640915 98.808578,260.227753 
	C92.410049,266.588593 89.364296,274.026672 91.182938,282.521729 
	C92.182953,287.192932 95.078323,291.458374 96.713303,295.977203 
	C93.057724,296.700928 89.749741,297.147186 86.568024,298.042297 
	C70.354630,302.603546 54.173889,307.280823 37.668663,311.774231 
	C19.453840,285.837128 7.151681,257.786285 2.911041,226.458054 
	C2.834973,225.896103 1.661452,225.482712 1.000004,225.000000 
M132.806946,152.192444 
	C132.532120,153.213791 132.257278,154.235153 131.982452,155.256500 
	C133.340027,155.154068 134.820724,155.342773 136.009064,154.840195 
	C136.724152,154.537781 136.983917,153.158691 137.448288,152.263443 
	C136.133972,152.177658 134.819656,152.091873 132.806946,152.192444 
M141.275742,148.881058 
	C141.467377,149.424561 141.658997,149.968063 141.850632,150.511566 
	C142.129120,150.383820 142.407593,150.256073 142.686066,150.128311 
	C142.360748,149.569046 142.035446,149.009796 141.275742,148.881058 
M108.516655,168.413986 
	C108.516655,168.413986 108.581467,168.523575 108.516655,168.413986 
z"/>
<path fill="#000000" opacity="1.000000" stroke="none" 
	d="
M168.531342,0.999999 
	C168.347580,1.665291 167.767365,2.816813 167.032364,2.925929 
	C135.053711,7.673509 105.969833,19.568642 80.434372,39.317566 
	C69.284355,47.940910 58.537773,57.399170 49.061863,67.802544 
	C33.775887,84.584641 22.368858,104.100418 14.040369,125.278374 
	C8.611012,139.084351 4.636411,153.305618 2.913076,168.098480 
	C2.850153,168.638596 2.130286,169.102188 1.358288,169.300720 
	C1.000000,113.072983 1.000000,57.145969 1.000000,1.000000 
	C56.687370,1.000000 112.375023,1.000000 168.531342,0.999999 
z"/>
<path fill="#000000" opacity="1.000000" stroke="none" 
	d="
M225.468658,393.000000 
	C225.652420,392.334717 226.232666,391.183197 226.967667,391.074097 
	C258.946320,386.326385 288.030304,374.431396 313.565735,354.682312 
	C324.715729,346.058899 335.462280,336.600555 344.938293,326.197235 
	C360.224396,309.415283 371.631775,289.899872 379.959717,268.721558 
	C385.388672,254.915436 389.363495,240.694275 391.086884,225.901428 
	C391.149811,225.361359 391.869720,224.897812 392.641724,224.699295 
	C393.000000,280.927002 393.000000,336.854034 393.000000,393.000000 
	C337.312622,393.000000 281.624969,393.000000 225.468658,393.000000 
z"/>
<path fill="#000000" opacity="1.000000" stroke="none" 
	d="
M40.085358,315.136810 
	C49.311092,325.179321 57.827332,336.010986 67.922104,345.086884 
	C84.769791,360.234100 104.186913,371.695740 125.352623,379.971283 
	C139.148346,385.365265 153.328049,389.383575 168.101822,391.087158 
	C168.640518,391.149292 169.103271,391.869781 169.300705,392.641724 
	C113.072983,393.000000 57.145969,393.000000 1.000000,393.000000 
	C1.000000,337.312622 1.000000,281.624969 1.000004,225.468658 
	C1.661452,225.482712 2.834973,225.896103 2.911041,226.458054 
	C7.151681,257.786285 19.453840,285.837128 37.779503,312.078400 
	C38.830723,313.396149 39.458038,314.266479 40.085358,315.136810 
z"/>
<path fill="#000000" opacity="1.000000" stroke="none" 
	d="
M393.000000,168.531342 
	C392.334717,168.347580 391.183197,167.767349 391.074097,167.032349 
	C386.326416,135.053726 374.431458,105.969757 354.682434,80.434334 
	C346.059052,69.284325 336.600800,58.537724 326.197418,49.061817 
	C309.415314,33.775856 289.899506,22.368837 268.721527,14.040363 
	C254.915573,8.611005 240.694290,4.636427 225.901428,2.913073 
	C225.361343,2.850154 224.897781,2.130285 224.699280,1.358288 
	C280.927002,1.000000 336.854004,1.000000 393.000000,1.000000 
	C393.000000,56.687370 393.000000,112.375023 393.000000,168.531342 
z"/>
<path fill="#353535" opacity="1.000000" stroke="none" 
	d="
M40.490814,315.063721 
	C39.458038,314.266479 38.830723,313.396149 38.092560,312.221649 
	C54.173889,307.280823 70.354630,302.603546 86.568024,298.042297 
	C89.749741,297.147186 93.057724,296.700928 97.088684,296.002136 
	C100.059883,295.313751 102.249863,294.670959 104.820236,294.090240 
	C106.534363,294.062805 107.868095,293.973267 109.400543,293.978607 
	C109.599274,294.073486 110.020584,294.211182 110.095673,294.557739 
	C116.206871,297.817291 118.861160,297.233246 121.324631,292.434875 
	C122.144836,292.288727 122.618828,292.233917 123.245239,292.386505 
	C123.934631,292.365387 124.471596,292.136841 125.362106,291.902222 
	C126.597687,291.578888 127.479713,291.261658 128.667389,291.064636 
	C131.434219,291.079193 133.895416,290.973511 136.698181,290.842529 
	C138.179840,290.714478 139.319931,290.611755 140.858932,290.635101 
	C142.070450,290.941864 142.883972,291.283936 143.695511,291.279266 
	C157.593872,291.199249 171.491959,291.072205 185.390182,290.966095 
	C188.339539,290.943573 191.289230,290.962830 195.194794,290.962830 
	C195.380005,289.071930 196.393127,286.243805 195.740753,283.874237 
	C194.234222,278.402191 191.447327,273.275177 190.022812,267.789337 
	C185.886566,251.860458 188.311188,235.835587 190.079346,219.859756 
	C190.180740,218.943604 191.012939,218.130081 191.260117,217.203476 
	C191.687225,215.602310 192.005447,213.960495 192.215729,212.316101 
	C192.463730,210.376892 192.347336,208.374863 192.743881,206.474106 
	C193.711227,201.837387 195.100311,197.282043 195.930862,192.624634 
	C198.093277,180.498749 199.087936,168.295975 195.894714,156.208206 
	C194.747452,151.865402 192.803482,147.713333 191.012039,143.565384 
	C188.700638,138.213531 186.177414,132.953186 183.872482,127.341156 
	C185.490402,124.437851 186.981247,121.846817 188.862595,119.396637 
	C195.993820,123.058044 202.792130,126.292480 211.191132,124.225098 
	C210.516586,123.230171 210.262070,122.559891 209.778519,122.184914 
	C199.419983,114.151825 197.416763,102.878792 196.769119,90.686852 
	C196.359375,82.972801 194.438034,75.339050 193.348663,67.429054 
	C193.995789,66.128242 194.488907,65.067665 194.982025,64.007080 
	C206.641037,51.067364 221.333069,48.387180 237.370132,52.541931 
	C244.338348,54.347195 251.258911,57.463306 257.274139,61.400349 
	C260.921570,63.787659 263.117767,68.710297 265.349396,72.828041 
	C266.775787,75.459923 266.118469,78.344063 263.085724,80.127541 
	C262.276520,80.603409 261.052917,81.651276 261.161316,82.218292 
	C262.667267,90.096718 256.388214,97.015488 258.462463,104.958672 
	C258.958771,106.859222 258.962830,108.939133 258.870392,110.921494 
	C258.823090,111.935814 258.107452,113.760239 257.616364,113.786819 
	C249.860794,114.206551 250.670471,121.259987 248.787109,125.710045 
	C246.587646,130.907074 243.680832,133.245056 238.261459,131.447662 
	C235.281189,130.459229 232.414429,129.128494 229.020523,127.760185 
	C228.359619,131.105545 227.093811,134.234360 227.394760,137.204407 
	C227.578781,139.020569 229.850021,141.375427 231.732574,142.143646 
	C241.568802,146.157455 243.251633,148.424744 250.478256,162.159882 
	C247.442535,162.809677 244.489349,163.441818 241.536148,164.073944 
	C263.792908,163.845688 280.213409,171.799347 286.580322,194.623505 
	C291.878052,187.160843 297.153748,179.651169 302.521820,172.208084 
	C304.511383,169.449478 304.427063,167.704376 301.522980,165.218475 
	C288.753448,154.287613 285.072937,136.752533 291.917786,121.641838 
	C298.761383,106.533882 314.400146,97.951271 331.123383,100.125687 
	C346.919495,102.179565 359.884674,114.962341 362.693726,131.251877 
	C366.278473,152.039658 350.370148,172.638535 329.320312,174.049713 
	C325.592773,174.299606 324.225800,175.305466 323.666016,179.023331 
	C321.265900,194.964142 318.949219,210.940155 315.719727,226.722763 
	C314.355988,233.387451 311.131775,239.759384 308.148041,245.973816 
	C306.150848,250.133469 302.252686,251.479614 297.558777,250.316772 
	C278.215210,245.524734 259.462616,239.563873 244.391663,225.539215 
	C241.491653,222.840546 237.987808,220.790787 233.963623,218.760696 
	C239.610611,225.428970 234.473221,230.905029 232.727783,236.493561 
	C228.349091,250.513168 224.551285,264.615631 224.077042,279.402588 
	C224.013107,281.396179 224.203003,283.396759 224.229050,285.394684 
	C224.278442,289.184204 225.960388,290.648651 229.952271,290.998596 
	C262.557251,293.856659 294.449005,300.249023 325.379700,311.104919 
	C329.552429,312.569397 333.639893,314.276672 337.671265,316.571259 
	C238.759155,299.762970 139.866577,298.698303 40.490814,315.063721 
M333.232513,162.039124 
	C345.826996,157.417191 353.256592,146.359467 351.718750,134.525421 
	C349.753723,119.404045 336.558044,108.988731 322.222137,111.243843 
	C307.447327,113.568001 297.517639,127.287025 300.163239,141.720886 
	C302.892792,156.612946 317.161957,165.683456 333.232513,162.039124 
z"/>
<path fill="#FC6704" opacity="1.000000" stroke="none" 
	d="
M193.194656,67.669281 
	C194.438034,75.339050 196.359375,82.972801 196.769119,90.686852 
	C197.416763,102.878792 199.419983,114.151825 209.778519,122.184914 
	C210.262070,122.559891 210.516586,123.230171 211.191132,124.225098 
	C202.792130,126.292480 195.993820,123.058044 188.877502,119.107307 
	C185.795532,114.746086 183.089188,110.815048 179.911407,106.199242 
	C179.866653,114.495110 176.922638,122.161888 182.042450,129.501190 
	C183.774887,133.972260 185.151672,138.282196 187.342041,142.128876 
	C195.809647,156.999496 197.189758,172.848038 194.432724,189.342896 
	C191.808716,205.041824 188.634308,220.666443 186.583664,236.438400 
	C184.635590,251.421371 186.133316,266.293610 191.486694,280.595276 
	C192.330093,282.848389 193.335419,285.040955 194.443298,287.684998 
	C192.604904,287.923553 191.501694,288.160492 190.392136,288.195526 
	C182.923050,288.431519 175.452744,288.629211 167.982590,288.830353 
	C159.197968,289.066956 150.413116,289.294464 141.537048,289.095337 
	C141.445724,283.224640 141.445724,277.784576 141.445724,272.344482 
	C140.980438,272.204468 140.515167,272.064453 140.049881,271.924408 
	C139.476303,273.331787 138.640778,274.694214 138.389984,276.156952 
	C138.005585,278.398987 138.023849,280.710022 137.634430,283.178833 
	C137.311951,283.942505 137.226257,284.519104 137.079041,285.043091 
	C137.017517,284.990509 137.153030,285.080048 136.850342,285.244629 
	C136.379028,286.287201 136.210419,287.165192 136.026505,288.019165 
	C136.011215,287.995117 136.053116,288.038025 135.623505,288.019592 
	C133.921295,287.477081 132.648727,286.952972 131.403046,286.174072 
	C131.574112,285.611603 131.718323,285.303894 132.191559,284.786316 
	C134.446884,280.295837 135.649673,276.052521 131.923737,272.030792 
	C131.972168,271.995636 131.900742,272.091644 131.944672,271.703369 
	C130.973907,269.890900 129.959183,268.466705 128.967911,267.019104 
	C128.991364,266.995667 128.962692,267.054901 128.899750,266.812744 
	C128.660980,266.261658 128.399719,266.067993 128.026306,265.995361 
	C127.999603,266.001129 128.019440,265.950226 128.016510,265.581299 
	C126.997650,264.493439 125.981705,263.774536 124.980881,263.028503 
	C124.996010,263.001373 124.954544,263.048309 124.883942,262.779144 
	C124.533463,262.031555 124.253586,261.553162 123.981735,260.739685 
	C124.276451,259.606232 124.563126,258.807770 125.269028,258.027954 
	C129.463135,258.454559 131.107941,256.628052 131.073929,252.747345 
	C131.311142,252.239548 131.557510,252.055969 132.140671,251.889938 
	C132.571045,251.496933 132.737762,251.184494 132.894455,250.924805 
	C132.884415,250.977539 132.855392,250.874161 133.164642,250.903122 
	C133.634460,250.272919 133.795013,249.613739 133.947998,248.634415 
	C133.947845,247.887375 133.955246,247.460480 134.222321,246.834412 
	C133.526932,243.254379 133.650375,239.221344 129.098999,237.774933 
	C128.974411,237.609802 128.893097,237.204178 128.937958,236.799805 
	C128.874039,233.778870 128.878510,231.083664 125.085770,230.770370 
	C124.972099,230.595032 124.916145,230.180893 124.942253,229.850006 
	C124.587036,229.046738 124.205711,228.574341 123.873375,228.067383 
	C123.922363,228.032791 123.876709,228.143692 123.821724,227.869934 
	C123.464676,227.397568 123.162621,227.198975 122.761948,226.913910 
	C122.663345,226.827454 122.669624,226.565247 122.746788,226.196167 
	C122.202583,225.225220 121.581215,224.623352 120.982208,224.013641 
	C121.004562,224.005783 120.974419,224.042725 120.984825,223.738800 
	C120.711617,222.917435 120.428001,222.399963 120.077469,221.591232 
	C119.434937,220.830338 118.859322,220.360733 118.023727,219.736908 
	C117.444145,218.853699 117.124557,218.124725 116.868301,216.968842 
	C116.890694,214.196426 117.650459,211.425247 113.904457,210.826065 
	C113.820770,210.647278 113.817963,210.252472 113.889000,209.784973 
	C113.677292,205.554123 113.394547,201.790787 113.087151,197.710968 
	C113.056725,196.971878 113.050957,196.549286 113.208000,196.058533 
	C113.370804,195.990372 113.689949,195.839386 114.021561,195.693420 
	C114.537048,194.625977 114.720924,193.704514 114.970879,192.480255 
	C115.348236,191.424057 115.659523,190.670670 116.278931,189.796844 
	C120.209618,186.330994 123.832176,182.985565 127.454742,179.640137 
	C127.454742,179.640137 127.523819,179.540573 127.884415,179.430252 
	C130.706009,176.096619 133.329437,172.981964 135.579956,169.617844 
	C137.618469,166.570618 139.250305,163.251343 141.061432,160.052017 
	C141.061447,160.052017 141.000534,160.001770 141.377670,160.012253 
	C149.145721,157.223495 151.760880,151.373550 151.990265,143.999588 
	C151.990265,143.999588 152.220184,143.682755 152.374084,143.342560 
	C152.751709,142.703186 152.768814,142.392685 152.579269,142.070877 
	C152.723328,141.621475 152.867371,141.172073 153.120605,140.058044 
	C153.229797,138.315414 153.229797,137.237427 153.229797,135.133957 
	C150.736542,137.049667 148.975510,138.455750 147.160278,139.787979 
	C140.734131,144.504211 137.222015,143.634827 132.840973,137.319061 
	C130.670166,134.189621 128.757904,129.256027 123.065987,131.827667 
	C123.065987,131.827667 123.077789,131.921555 122.981483,131.481476 
	C123.076042,128.973663 123.478210,126.898514 123.405838,124.840050 
	C123.309013,122.085945 122.844398,119.344772 122.537727,116.598045 
	C122.537727,116.598045 122.457474,116.534286 122.302933,116.189957 
	C120.789268,112.114639 119.346680,108.411095 118.107231,104.640770 
	C117.513306,102.834099 117.303932,100.901009 116.920410,99.025169 
	C116.920540,98.569229 116.920670,98.113281 116.862190,96.933937 
	C117.537933,93.144547 118.272293,90.078568 119.006645,87.012581 
	C119.339867,86.542297 119.673096,86.072021 120.309143,85.147476 
	C124.019058,81.122932 127.426155,77.552643 130.833252,73.982361 
	C131.131714,73.813156 131.430161,73.643951 132.211670,73.189682 
	C134.980057,71.559822 137.166092,69.995636 139.568024,68.908455 
	C149.571198,64.380745 159.137985,62.209591 167.339996,71.374290 
	C167.707886,71.785339 168.504089,71.813026 168.493500,71.809372 
	C169.863647,70.278770 170.795319,68.892036 172.042191,67.902451 
	C178.999237,62.380997 186.082397,62.160263 193.194656,67.669281 
z"/>
<path fill="#FB6606" opacity="1.000000" stroke="none" 
	d="
M91.309662,195.942444 
	C91.200729,195.509094 91.091805,195.075729 91.304703,194.043610 
	C90.765236,187.006622 90.020905,180.549973 89.010956,174.135147 
	C87.920517,167.208969 82.924767,163.354874 75.624756,163.502350 
	C75.624756,163.502350 75.597305,163.414627 75.671432,163.050720 
	C74.284157,161.438828 72.822754,160.190857 71.361359,158.942871 
	C71.126038,158.694809 70.890717,158.446747 70.746330,157.489578 
	C70.872238,155.856216 70.907204,154.931946 71.293137,154.001877 
	C72.110626,153.986389 72.577156,153.976715 73.306503,153.986221 
	C73.919388,154.039017 74.269440,154.072632 74.728348,154.327271 
	C74.837204,154.548279 74.974884,155.021347 75.005920,155.337723 
	C75.651451,156.124283 76.265961,156.594467 76.915390,157.042206 
	C76.950310,157.019791 76.948074,157.102753 76.991302,157.411179 
	C77.653587,158.165283 78.272652,158.610962 78.933563,159.056885 
	C78.975410,159.057129 78.931503,159.128387 78.984268,159.446564 
	C79.718407,160.147964 80.399780,160.531174 81.046982,160.954895 
	C81.012794,160.995422 81.053467,160.897537 81.204041,161.187622 
	C81.970139,161.616364 82.585670,161.755035 83.495728,161.925812 
	C84.515213,162.259232 85.240166,162.560532 86.191223,163.165894 
	C90.336937,165.187851 94.189041,164.970917 98.228226,163.072952 
	C98.474182,163.079376 98.966255,163.081436 99.033859,163.409912 
	C100.033310,164.166443 100.965157,164.594513 102.221497,165.069641 
	C102.981422,165.148788 103.416832,165.180862 103.889572,165.222290 
	C103.926888,165.231644 103.928345,165.155762 103.928345,165.155762 
	C103.746857,165.263123 103.565369,165.370483 102.867157,165.748932 
	C101.862328,166.682632 101.374222,167.345261 100.626404,168.271866 
	C101.588974,173.211777 102.452843,178.026794 104.189941,182.502930 
	C105.015717,184.630753 107.505791,186.112717 109.442329,188.004974 
	C109.890953,188.340881 110.019653,188.615173 110.025192,189.396271 
	C110.147186,190.435303 110.272835,191.023605 110.400528,191.727997 
	C110.402580,191.844070 110.226624,191.995560 109.867638,192.143433 
	C108.343689,197.082108 106.686943,201.826523 106.228607,206.684021 
	C106.011024,208.989868 108.080322,211.511475 109.073929,213.976349 
	C109.034256,214.017365 109.094688,213.921646 109.072937,214.238159 
	C109.418762,215.014420 109.786339,215.474182 110.103333,215.953140 
	C110.052742,215.972336 110.112595,215.882187 110.072845,216.240814 
	C110.455421,217.346100 110.877754,218.092789 111.318634,218.844482 
	C111.337181,218.849487 111.367760,218.826233 111.162704,219.105499 
	C109.016396,223.049957 110.632584,225.019714 114.056862,226.300781 
	C113.780205,226.788239 113.536583,226.982803 112.957878,227.168076 
	C112.489151,227.542618 112.295288,227.851044 112.077713,228.083588 
	C112.054001,228.007690 112.135757,228.144104 111.755775,228.077209 
	C108.880623,226.700699 106.385460,225.391052 103.922455,224.034393 
	C103.954605,223.987396 103.915398,224.093857 103.927353,223.744415 
	C103.009460,222.205841 102.079605,221.016678 100.994072,219.629639 
	C100.544899,219.279129 100.251411,219.126541 99.957916,218.973953 
	C99.957916,218.973953 99.727287,218.825058 99.796417,218.307144 
	C99.403343,217.333298 98.941139,216.877365 98.478943,216.421432 
	C98.478943,216.421432 98.407883,216.282608 98.586082,216.002716 
	C97.674927,214.181427 96.585579,212.640060 95.496231,211.098679 
	C95.496231,211.098679 95.429230,210.906601 95.615051,210.394867 
	C94.838768,207.588760 93.876678,205.294403 92.914581,203.000031 
	C92.914581,203.000031 92.738220,202.695892 92.882660,202.133270 
	C93.134514,199.487122 96.131798,196.521744 91.309662,195.942444 
z"/>
<path fill="#F06F1C" opacity="1.000000" stroke="none" 
	d="
M104.439842,294.028168 
	C102.249863,294.670959 100.059883,295.313751 97.494522,295.931641 
	C95.078323,291.458374 92.182953,287.192932 91.182938,282.521729 
	C89.364296,274.026672 92.410049,266.588593 99.055283,260.248169 
	C99.461739,259.973480 99.956772,259.968567 100.268280,259.962646 
	C101.032440,259.593781 101.485100,259.230774 101.969246,258.918335 
	C102.000732,258.968872 101.906891,258.895569 102.286476,258.938232 
	C103.426270,258.977600 104.186485,258.974304 104.956375,259.342560 
	C104.993500,260.456848 105.020935,261.199615 104.698311,262.017029 
	C103.948204,262.849701 103.548141,263.607635 102.957031,264.638855 
	C99.332840,268.116455 97.218010,271.776947 96.765266,276.713837 
	C96.086609,284.114105 99.741814,289.211853 104.439842,294.028168 
z"/>
<path fill="#FBF7EA" opacity="1.000000" stroke="none" 
	d="
M193.348663,67.429054 
	C186.082397,62.160263 178.999237,62.380997 172.042191,67.902451 
	C170.795319,68.892036 169.863647,70.278770 168.493500,71.809372 
	C168.504089,71.813026 167.707886,71.785339 167.339996,71.374290 
	C159.137985,62.209591 149.571198,64.380745 139.568024,68.908455 
	C137.166092,69.995636 134.980057,71.559822 132.346436,72.965851 
	C133.078323,67.963432 137.949448,67.002426 141.480652,65.671890 
	C146.602066,63.742203 152.353241,63.114487 157.883118,62.820068 
	C160.094818,62.702316 162.340530,65.218849 164.741684,66.030853 
	C166.655502,66.678055 170.074036,67.475952 170.693298,66.635864 
	C176.561996,58.674461 183.970459,61.095371 191.381256,62.977219 
	C192.343964,63.221684 193.274399,63.593250 194.600891,63.956516 
	C194.488907,65.067665 193.995789,66.128242 193.348663,67.429054 
z"/>
<path fill="#FEEAD1" opacity="1.000000" stroke="none" 
	d="
M110.226624,191.995560 
	C110.226624,191.995560 110.402580,191.844070 110.595512,191.596024 
	C110.788445,191.347977 111.138832,191.031677 111.355392,191.022659 
	C111.571960,191.013641 112.005310,191.001831 112.054344,191.329407 
	C112.766762,192.118439 113.430145,192.579910 114.061371,193.417938 
	C113.821167,194.250839 113.613136,194.707184 113.305099,195.306183 
	C113.096123,195.661621 113.042824,195.887573 113.045197,196.126694 
	C113.050957,196.549286 113.056725,196.971878 112.968750,197.682068 
	C112.875000,197.969681 112.631706,197.985016 112.471924,198.200378 
	C112.249184,198.767242 112.186234,199.118759 112.186607,199.874939 
	C112.514572,203.511078 112.779213,206.742508 112.782257,210.174927 
	C113.037292,211.236710 113.553925,212.097519 114.039536,212.977661 
	C114.008522,212.996964 114.036339,212.929382 114.088913,213.130493 
	C114.256714,213.594803 114.440437,213.795212 114.891357,214.207642 
	C115.661705,215.453583 116.233337,216.424652 116.804970,217.395737 
	C117.124557,218.124725 117.444145,218.853699 117.968658,220.005493 
	C118.141678,220.608170 118.109779,220.788040 118.077873,220.967896 
	C117.228020,221.566345 116.378166,222.164810 114.980042,222.719421 
	C113.410423,221.392471 112.389091,220.109360 111.367760,218.826233 
	C111.367760,218.826233 111.337181,218.849487 111.324799,218.509323 
	C110.912483,217.406830 110.512535,216.644516 110.112595,215.882187 
	C110.112595,215.882187 110.052742,215.972336 110.088348,215.648148 
	C109.780869,214.856522 109.437782,214.389084 109.094688,213.921646 
	C109.094688,213.921646 109.034256,214.017365 109.087837,213.624817 
	C109.051117,212.303757 108.960815,211.375229 108.903381,210.064423 
	C108.630249,208.789688 108.324257,207.897217 107.909378,206.575867 
	C108.609207,201.429840 109.417915,196.712692 110.226624,191.995560 
z"/>
<path fill="#FBF7EA" opacity="1.000000" stroke="none" 
	d="
M123.220886,132.139160 
	C128.757904,129.256027 130.670166,134.189621 132.840973,137.319061 
	C137.222015,143.634827 140.734131,144.504211 147.160278,139.787979 
	C148.975510,138.455750 150.736542,137.049667 153.229797,135.133957 
	C153.229797,137.237427 153.229797,138.315414 153.076477,139.701065 
	C149.962463,141.351868 147.105545,143.061478 144.012558,143.937653 
	C140.755905,144.860229 137.273621,144.986267 133.889923,145.460327 
	C134.071732,144.956772 134.253555,144.453232 134.435379,143.949692 
	C130.748840,140.116669 127.062309,136.283646 123.220886,132.139160 
z"/>
<path fill="#FCFCFD" opacity="1.000000" stroke="none" 
	d="
M114.093536,193.041382 
	C113.430145,192.579910 112.766762,192.118439 112.055946,190.947540 
	C110.993088,188.833969 109.977654,187.429825 108.981499,186.013184 
	C109.000778,186.000702 108.970909,186.035980 108.976608,185.737564 
	C108.466972,184.924591 107.951637,184.410049 107.210121,183.661346 
	C106.551987,182.455643 106.120041,181.484085 105.785004,180.148743 
	C106.252510,178.856644 106.623108,177.928314 106.993706,177.000000 
	C108.436966,177.976791 109.880219,178.953583 111.713669,180.300476 
	C113.063744,180.449844 114.023628,180.229095 114.983505,180.008362 
	C116.520264,180.489563 118.057014,180.970779 119.641083,182.045303 
	C117.690323,184.677246 115.000671,186.362625 115.970810,189.917267 
	C115.659523,190.670670 115.348236,191.424057 114.764877,192.535034 
	C114.492805,192.892609 114.093536,193.041382 114.093536,193.041382 
z"/>
<path fill="#EB7629" opacity="1.000000" stroke="none" 
	d="
M75.797729,163.778610 
	C82.924767,163.354874 87.920517,167.208969 89.010956,174.135147 
	C90.020905,180.549973 90.765236,187.006622 91.355614,193.708481 
	C89.793877,187.521133 88.234718,181.108185 87.313072,174.604904 
	C86.761871,170.715515 85.531792,168.287018 81.403107,167.371017 
	C79.443512,166.936249 77.772461,165.200974 75.797729,163.778610 
z"/>
<path fill="#EB7629" opacity="1.000000" stroke="none" 
	d="
M70.942177,154.007690 
	C70.907204,154.931946 70.872238,155.856216 70.709122,157.230042 
	C62.972763,146.859756 66.037727,133.025894 78.345413,124.766212 
	C78.805786,124.820015 79.060875,125.079453 78.884247,125.356384 
	C77.129379,127.746712 75.551140,129.860107 73.617180,132.020645 
	C67.700348,136.756500 66.360680,144.918793 70.010727,152.302063 
	C70.336029,153.065872 70.639099,153.536774 70.942177,154.007690 
z"/>
<path fill="#FBF7EA" opacity="1.000000" stroke="none" 
	d="
M140.656326,160.024689 
	C139.250305,163.251343 137.618469,166.570618 135.579956,169.617844 
	C133.329437,172.981964 130.706009,176.096619 127.944679,179.424011 
	C127.932716,177.952942 127.729698,175.395569 128.590607,174.964905 
	C133.521194,172.498352 133.876953,168.056091 134.361847,163.515427 
	C134.758240,159.803665 137.577438,159.983963 140.656326,160.024689 
z"/>
<path fill="#FEEAD1" opacity="1.000000" stroke="none" 
	d="
M99.956772,259.968567 
	C99.956772,259.968567 99.461739,259.973480 99.215042,259.953064 
	C99.063042,255.640915 102.069763,254.239883 105.528786,254.124924 
	C111.507317,253.926254 117.502419,254.247726 123.490990,254.313034 
	C124.750687,254.326782 126.012169,254.176727 127.832870,254.236664 
	C128.518677,254.489853 128.644440,254.608536 128.589188,255.018524 
	C127.259964,255.916397 126.111740,256.522949 124.814209,256.876556 
	C124.104485,256.501129 123.544067,256.378632 122.688347,256.096069 
	C121.951317,255.907837 121.509590,255.879669 121.033157,255.896271 
	C120.998451,255.941055 121.100792,255.892426 120.772110,255.632767 
	C113.843956,254.333740 107.378136,253.997742 101.906891,258.895569 
	C101.906891,258.895569 102.000732,258.968872 101.669388,258.923309 
	C100.877617,259.241364 100.417198,259.604950 99.956772,259.968567 
z"/>
<path fill="#FBF7EA" opacity="1.000000" stroke="none" 
	d="
M151.615753,144.043304 
	C151.760880,151.373550 149.145721,157.223495 141.401398,160.043839 
	C142.380112,157.725983 143.612259,155.322571 145.068802,153.063858 
	C147.035950,150.013321 149.175598,147.074036 151.615753,144.043304 
z"/>
<path fill="#EB7629" opacity="1.000000" stroke="none" 
	d="
M98.966255,163.081421 
	C98.966255,163.081436 98.474182,163.079376 98.223297,162.789764 
	C97.973633,162.311768 97.974854,162.123383 98.166183,161.662109 
	C101.173752,158.831070 103.991203,156.272919 106.905243,154.070190 
	C108.585281,154.607178 110.168739,154.788742 111.845734,155.237961 
	C112.010529,155.680725 112.081802,155.855804 112.153069,156.030884 
	C110.987015,157.697403 109.820961,159.363922 108.016647,161.058319 
	C106.851547,161.041428 106.324699,160.996643 105.430664,160.975311 
	C103.031067,161.692993 100.998657,162.387207 98.966255,163.081421 
z"/>
<path fill="#EB7629" opacity="1.000000" stroke="none" 
	d="
M95.974060,121.577721 
	C96.421783,121.693291 96.869514,121.808868 97.883156,122.190567 
	C99.941002,123.004440 101.432938,123.552200 102.924873,124.099960 
	C102.924873,124.099953 103.002373,124.011818 103.055801,124.298782 
	C103.481262,124.974777 103.853294,125.363808 104.137413,125.848839 
	C104.049492,125.944847 103.871956,126.135300 103.496613,126.078735 
	C95.214355,122.818520 87.235748,121.444435 79.060875,125.079453 
	C79.060875,125.079453 78.805786,124.820015 78.677399,124.689713 
	C83.370743,123.406197 88.192474,122.252991 93.668137,121.284897 
	C94.872734,121.505920 95.423401,121.541824 95.974060,121.577721 
z"/>
<path fill="#FBF7EA" opacity="1.000000" stroke="none" 
	d="
M116.640190,99.315689 
	C117.303932,100.901009 117.513306,102.834099 118.107231,104.640770 
	C119.346680,108.411095 120.789268,112.114639 122.300812,116.138756 
	C120.849495,117.106499 119.245750,117.781120 117.605583,118.471062 
	C117.184097,112.087608 116.772041,105.846909 116.640190,99.315689 
z"/>
<path fill="#FEEAD1" opacity="1.000000" stroke="none" 
	d="
M128.893097,237.204178 
	C128.893097,237.204178 128.974411,237.609802 129.140503,238.118195 
	C130.858612,241.428925 132.410629,244.231262 133.962646,247.033600 
	C133.955246,247.460480 133.947845,247.887375 133.700409,248.792175 
	C133.258728,249.804779 133.057068,250.339478 132.855392,250.874161 
	C132.855392,250.874161 132.884415,250.977539 132.626175,250.993301 
	C132.204285,251.329544 132.040649,251.650024 131.877014,251.970520 
	C131.557510,252.055969 131.311142,252.239548 130.807175,252.855927 
	C129.907700,253.702805 129.338943,254.215012 128.770203,254.727234 
	C128.644440,254.608536 128.518677,254.489853 128.204376,254.193390 
	C132.202316,249.218323 130.627075,244.505600 127.930885,239.713699 
	C127.311447,238.612762 127.246429,237.199905 127.184593,235.680054 
	C127.926315,236.021072 128.409698,236.612625 128.893097,237.204178 
z"/>
<path fill="#FEEAD1" opacity="1.000000" stroke="none" 
	d="
M113.232742,227.101974 
	C113.536583,226.982803 113.780205,226.788239 114.318390,226.292664 
	C114.847061,226.054077 115.020966,226.041077 115.194870,226.028091 
	C115.918114,230.168259 113.179626,232.193527 109.978752,232.651642 
	C106.296562,233.178650 104.602692,230.277115 103.974854,226.460480 
	C104.012032,226.003632 104.215904,225.815491 104.501160,225.989960 
	C106.972717,227.802490 108.369995,232.369705 112.135757,228.144104 
	C112.135757,228.144104 112.054001,228.007690 112.354080,228.021362 
	C112.847023,227.724014 113.039879,227.412994 113.232742,227.101974 
z"/>
<path fill="#FBF7EA" opacity="1.000000" stroke="none" 
	d="
M116.278938,189.796844 
	C115.000671,186.362625 117.690323,184.677246 119.845963,182.325745 
	C122.252007,181.102768 124.500488,180.192657 127.101852,179.461334 
	C123.832176,182.985565 120.209618,186.330994 116.278938,189.796844 
z"/>
<path fill="#FBF7EA" opacity="1.000000" stroke="none" 
	d="
M130.430206,73.975235 
	C127.426155,77.552643 124.019058,81.122932 120.320885,84.852402 
	C119.895546,84.913010 119.640747,84.809784 119.644333,84.716492 
	C119.815598,80.263420 125.736397,74.147430 130.430206,73.975235 
z"/>
<path fill="#EB7629" opacity="1.000000" stroke="none" 
	d="
M114.959244,144.021210 
	C114.914352,145.075623 114.869469,146.130035 114.616974,147.821594 
	C113.603951,150.314941 112.798538,152.171158 111.983528,153.594894 
	C113.180435,147.738159 113.387718,142.399658 111.102158,137.128036 
	C110.687393,136.171402 111.137741,134.839706 111.426888,133.866882 
	C112.107544,134.699478 112.550018,135.346344 112.992493,135.993225 
	C112.992493,135.993225 112.997253,136.001282 112.998901,136.392426 
	C113.653435,139.196121 114.306335,141.608673 114.959244,144.021210 
z"/>
<path fill="#FBF7EA" opacity="1.000000" stroke="none" 
	d="
M122.365364,117.054550 
	C122.844398,119.344772 123.309013,122.085945 123.405838,124.840050 
	C123.478210,126.898514 123.076042,128.973663 123.023590,131.459885 
	C122.210106,130.749207 120.397659,129.567841 120.462410,128.500320 
	C120.685883,124.815804 121.564110,121.170982 122.365364,117.054550 
z"/>
<path fill="#FBF7EA" opacity="1.000000" stroke="none" 
	d="
M107.034470,176.637360 
	C106.623108,177.928314 106.252510,178.856644 105.565186,179.957306 
	C105.092865,179.581863 104.937271,179.034073 104.797058,178.198471 
	C104.596443,177.608200 104.380455,177.305740 103.988182,176.717529 
	C103.479630,175.382751 103.147354,174.333725 102.892601,172.953949 
	C103.010674,172.400360 103.051231,172.177536 103.091782,171.954742 
	C104.720116,171.864960 106.348442,171.775177 108.710579,171.644928 
	C108.362877,172.629303 107.719063,174.452026 107.034470,176.637360 
z"/>
<path fill="#FBF7EA" opacity="1.000000" stroke="none" 
	d="
M118.604813,87.010101 
	C118.272293,90.078568 117.537933,93.144547 116.723228,96.617538 
	C113.643433,93.111954 114.312325,88.817223 118.604813,87.010101 
z"/>
<path fill="#FBF7EA" opacity="1.000000" stroke="none" 
	d="
M133.156143,152.099274 
	C134.819656,152.091873 136.133972,152.177658 137.448288,152.263443 
	C136.983917,153.158691 136.724152,154.537781 136.009064,154.840195 
	C134.820724,155.342773 133.340027,155.154068 131.982452,155.256500 
	C132.257278,154.235153 132.532120,153.213791 133.156143,152.099274 
z"/>
<path fill="#EB7629" opacity="1.000000" stroke="none" 
	d="
M115.183929,225.649933 
	C115.020966,226.041077 114.847061,226.054077 114.411636,226.075195 
	C110.632584,225.019714 109.016396,223.049957 111.162704,219.105499 
	C112.389091,220.109360 113.410423,221.392471 114.693565,222.846268 
	C115.027908,223.768539 115.100449,224.520157 115.183929,225.649933 
z"/>
<path fill="#FEEAD3" opacity="1.000000" stroke="none" 
	d="
M111.993118,154.027374 
	C112.798538,152.171158 113.603951,150.314941 114.655197,148.216339 
	C117.260315,149.991074 116.709518,152.112396 112.497726,155.966705 
	C112.081802,155.855804 112.010529,155.680725 111.916748,155.005188 
	C111.894234,154.504761 111.993118,154.027374 111.993118,154.027374 
z"/>
<path fill="#FEEAD1" opacity="1.000000" stroke="none" 
	d="
M122.669624,226.565247 
	C122.669624,226.565247 122.663345,226.827454 122.806732,227.195053 
	C123.258980,227.756332 123.567841,227.950012 123.876709,228.143692 
	C123.876709,228.143692 123.922363,228.032791 123.876534,228.378571 
	C124.192513,229.209854 124.554329,229.695374 124.916145,230.180893 
	C124.916145,230.180893 124.972099,230.595032 125.032166,231.037079 
	C125.054024,231.656326 125.015816,231.833511 124.977600,232.010696 
	C121.121864,231.119232 119.797630,228.471008 120.225945,224.400528 
	C120.486824,224.013428 120.974419,224.042725 120.974419,224.042725 
	C120.974419,224.042725 121.004562,224.005783 121.013504,224.336578 
	C121.571510,225.300018 122.120567,225.932632 122.669624,226.565247 
z"/>
<path fill="#FEEAD3" opacity="1.000000" stroke="none" 
	d="
M115.246353,143.824860 
	C114.306335,141.608673 113.653435,139.196121 113.000488,136.397003 
	C117.986153,137.172775 117.062256,140.300079 115.246353,143.824860 
z"/>
<path fill="#FEEAD3" opacity="1.000000" stroke="none" 
	d="
M113.020477,135.558807 
	C112.550018,135.346344 112.107544,134.699478 111.408401,133.686371 
	C111.151741,133.320129 110.946892,133.019119 110.932289,132.749023 
	C110.630844,132.294037 110.344009,132.109131 110.031525,131.961212 
	C110.005875,131.998184 110.077271,131.943314 110.014755,131.688782 
	C109.674606,131.240784 109.396973,131.047348 109.126755,130.851898 
	C109.134186,130.849869 109.158058,130.830704 109.135223,130.528198 
	C109.052071,129.828033 108.991745,129.430405 108.931419,129.032761 
	C114.347610,128.330261 112.696960,132.403900 113.020477,135.558807 
z"/>
<path fill="#FEEAD3" opacity="1.000000" stroke="none" 
	d="
M102.927811,123.754387 
	C101.432938,123.552200 99.941002,123.004440 98.231186,122.195374 
	C100.942245,118.124931 101.717361,121.497566 102.927811,123.754387 
z"/>
<path fill="#EB7629" opacity="1.000000" stroke="none" 
	d="
M91.244804,196.311447 
	C96.131798,196.521744 93.134514,199.487122 92.923187,201.962219 
	C92.272820,200.462662 91.726387,198.571564 91.244804,196.311447 
z"/>
<path fill="#EB7629" opacity="1.000000" stroke="none" 
	d="
M92.869614,203.389053 
	C93.876678,205.294403 94.838768,207.588760 95.648293,210.298737 
	C94.605362,208.402252 93.715004,206.090164 92.869614,203.389053 
z"/>
<path fill="#E7772D" opacity="1.000000" stroke="none" 
	d="
M124.988922,232.008957 
	C125.015816,231.833511 125.054024,231.656326 125.145844,231.212433 
	C128.878510,231.083664 128.874039,233.778870 128.937958,236.799805 
	C128.409698,236.612625 127.926315,236.021072 127.188263,235.291397 
	C126.805473,234.848785 126.677338,234.544312 126.325569,233.794846 
	C125.729820,232.908051 125.357704,232.466232 124.985580,232.024414 
	C124.985580,232.024414 125.000244,232.007217 124.988922,232.008957 
z"/>
<path fill="#FEEACE" opacity="1.000000" stroke="none" 
	d="
M103.055573,171.530472 
	C103.051231,172.177536 103.010674,172.400360 102.656555,172.688904 
	C101.857368,171.172379 101.371742,169.590134 100.886108,168.007889 
	C101.374222,167.345261 101.862328,166.682632 102.673080,165.998688 
	C103.003601,167.686981 103.011482,169.396606 103.055573,171.530472 
z"/>
<path fill="#EB7629" opacity="1.000000" stroke="none" 
	d="
M71.419861,159.250122 
	C72.822754,160.190857 74.284157,161.438828 75.625992,163.043793 
	C74.163750,162.119629 72.821060,160.838501 71.419861,159.250122 
z"/>
<path fill="#FEEAD1" opacity="1.000000" stroke="none" 
	d="
M103.913483,226.101257 
	C102.889160,224.999603 101.963379,223.800323 101.357727,222.334641 
	C102.423698,222.743439 103.169548,223.418640 103.915398,224.093857 
	C103.915398,224.093857 103.954605,223.987396 103.933975,224.329895 
	C104.014198,225.053421 104.115051,225.434448 104.215904,225.815491 
	C104.215904,225.815491 104.012032,226.003632 103.913483,226.101257 
z"/>
<path fill="#EB7629" opacity="1.000000" stroke="none" 
	d="
M95.493744,211.468674 
	C96.585579,212.640060 97.674927,214.181427 98.603798,216.078796 
	C98.115089,216.438782 97.837204,216.322449 97.366501,215.699005 
	C96.765938,214.868057 96.408539,214.423904 96.051140,213.979736 
	C95.864517,213.266052 95.677887,212.552353 95.493744,211.468674 
z"/>
<path fill="#EB7629" opacity="1.000000" stroke="none" 
	d="
M103.927353,223.744415 
	C103.169548,223.418640 102.423698,222.743439 101.396553,221.942108 
	C101.115257,221.815994 100.974892,221.378098 100.901871,220.989288 
	C100.828850,220.600494 100.838409,220.158371 100.917282,220.076630 
	C100.996162,219.994904 101.149757,219.827530 101.149757,219.827530 
	C102.079605,221.016678 103.009460,222.205841 103.927353,223.744415 
z"/>
<path fill="#FBF7EA" opacity="1.000000" stroke="none" 
	d="
M141.492935,148.665802 
	C142.035446,149.009796 142.360748,149.569046 142.686066,150.128311 
	C142.407593,150.256073 142.129120,150.383820 141.850632,150.511566 
	C141.658997,149.968063 141.467377,149.424561 141.492935,148.665802 
z"/>
<path fill="#FBF7EA" opacity="1.000000" stroke="none" 
	d="
M114.611694,180.007828 
	C114.023628,180.229095 113.063744,180.449844 112.056030,180.337738 
	C112.752083,180.005692 113.495987,180.006500 114.611694,180.007828 
z"/>
<path fill="#FEEAD1" opacity="1.000000" stroke="none" 
	d="
M94.987442,215.987671 
	C94.796043,216.861023 94.604652,217.734390 94.413254,218.607758 
	C94.023369,218.465347 93.633484,218.322937 93.243591,218.180527 
	C93.614929,217.492828 93.986267,216.805145 94.678696,216.058670 
	C94.999786,215.999893 94.987442,215.987671 94.987442,215.987671 
z"/>
<path fill="#FEEAD3" opacity="1.000000" stroke="none" 
	d="
M104.225334,125.752823 
	C103.853294,125.363808 103.481262,124.974777 103.009293,124.334366 
	C103.897270,124.540627 104.885178,124.998268 105.598618,125.788605 
	C104.957878,125.998474 104.591606,125.875648 104.225334,125.752823 
z"/>
<path fill="#EB7629" opacity="1.000000" stroke="none" 
	d="
M103.852249,165.212952 
	C103.416832,165.180862 102.981422,165.148788 102.417877,164.828156 
	C103.412735,164.081360 104.535713,163.623077 105.874954,163.102310 
	C106.091202,163.039810 106.529373,162.936432 106.529373,162.936432 
	C105.860741,163.540466 105.192108,164.144501 104.191681,165.011139 
	C103.859894,165.273743 103.852249,165.212952 103.852249,165.212952 
z"/>
<path fill="#EB7629" opacity="1.000000" stroke="none" 
	d="
M104.137413,125.848831 
	C104.591606,125.875648 104.957878,125.998474 105.612595,126.154388 
	C105.996841,126.491531 106.139656,126.771622 106.266617,127.400017 
	C106.203758,127.772285 105.949791,128.065872 105.647644,127.998901 
	C104.854317,127.333054 104.363136,126.734177 103.871956,126.135300 
	C103.871956,126.135300 104.049492,125.944847 104.137413,125.848831 
z"/>
<path fill="#FEEACE" opacity="1.000000" stroke="none" 
	d="
M105.797844,160.951843 
	C106.324699,160.996643 106.851547,161.041428 107.734009,161.263504 
	C107.734344,161.944382 107.379082,162.447983 106.776596,162.944000 
	C106.529373,162.936432 106.091202,163.039810 105.973068,162.741364 
	C105.835899,161.945908 105.816872,161.448868 105.797844,160.951843 
z"/>
<path fill="#FEEAD1" opacity="1.000000" stroke="none" 
	d="
M95.792145,214.139923 
	C96.408539,214.423904 96.765938,214.868057 97.152634,215.607971 
	C96.694672,215.931595 96.207413,215.959503 95.353790,215.987549 
	C94.987442,215.987671 94.999786,215.999893 95.005829,216.006165 
	C95.185631,215.441666 95.359390,214.870880 95.792145,214.139923 
z"/>
<path fill="#E7772D" opacity="1.000000" stroke="none" 
	d="
M118.279785,221.118713 
	C118.109779,220.788040 118.141678,220.608170 118.228638,220.159714 
	C118.859322,220.360733 119.434937,220.830338 119.974625,221.680878 
	C119.938698,222.061798 119.738083,222.242905 119.542358,222.197540 
	C119.346634,222.152161 118.944801,222.151840 118.944801,222.151840 
	C118.790428,221.857727 118.636063,221.563629 118.279785,221.118713 
z"/>
<path fill="#EB7629" opacity="1.000000" stroke="none" 
	d="
M106.333130,127.627594 
	C106.935257,127.782028 107.408005,128.081161 107.896492,128.734070 
	C107.912231,129.087860 107.738678,129.262650 107.483017,129.161469 
	C106.801498,128.728821 106.375648,128.397339 105.949791,128.065872 
	C105.949791,128.065872 106.203758,127.772285 106.333130,127.627594 
z"/>
<path fill="#FEEAD3" opacity="1.000000" stroke="none" 
	d="
M95.766037,121.386551 
	C95.423401,121.541824 94.872734,121.505920 94.112732,121.275665 
	C94.454941,121.119339 95.006477,121.157356 95.766037,121.386551 
z"/>
<path fill="#EB7629" opacity="1.000000" stroke="none" 
	d="
M98.477905,216.753220 
	C98.941139,216.877365 99.403343,217.333298 99.804108,218.170105 
	C99.320732,218.062317 98.898796,217.573669 98.477905,216.753220 
z"/>
<path fill="#EB7629" opacity="1.000000" stroke="none" 
	d="
M108.722298,128.986847 
	C108.991745,129.430405 109.052071,129.828033 108.863075,130.451385 
	C108.322060,130.205627 108.030365,129.734131 107.738678,129.262650 
	C107.738678,129.262650 107.912231,129.087860 107.999092,128.999893 
	C108.085953,128.911926 108.513176,128.940933 108.722298,128.986847 
z"/>
<path fill="#FEEAD1" opacity="1.000000" stroke="none" 
	d="
M124.985085,232.335388 
	C125.357704,232.466232 125.729820,232.908051 126.120209,233.649246 
	C125.753845,233.514542 125.369209,233.080460 124.985085,232.335388 
z"/>
<path fill="#E7772D" opacity="1.000000" stroke="none" 
	d="
M120.984825,223.738800 
	C120.974419,224.042725 120.486824,224.013428 120.242813,224.002045 
	C119.940559,223.811264 119.882317,223.631851 119.745163,223.046295 
	C119.666252,222.640152 119.738083,222.242905 119.738083,222.242905 
	C119.738083,222.242905 119.938698,222.061798 120.041542,221.972153 
	C120.428001,222.399963 120.711617,222.917435 120.984825,223.738800 
z"/>
<path fill="#EB7629" opacity="1.000000" stroke="none" 
	d="
M99.922058,219.269409 
	C100.251411,219.126541 100.544899,219.279129 100.994072,219.629639 
	C101.149757,219.827530 100.996162,219.994904 100.694412,220.049042 
	C100.392662,220.103180 99.946274,220.157028 99.946274,220.157028 
	C99.926247,219.959641 99.906227,219.762253 99.922058,219.269409 
z"/>
<path fill="#FEEAD1" opacity="1.000000" stroke="none" 
	d="
M100.005280,220.349152 
	C99.946274,220.157028 100.392662,220.103180 100.615540,220.130768 
	C100.838409,220.158371 100.828850,220.600494 100.757812,220.810089 
	C100.411522,220.948395 100.204025,220.788925 100.005280,220.349152 
z"/>
<path fill="#FEEAD1" opacity="1.000000" stroke="none" 
	d="
M119.542358,222.197540 
	C119.738083,222.242905 119.666252,222.640152 119.574829,222.820374 
	C119.256760,222.898178 119.099106,222.730759 118.977623,222.325104 
	C118.944801,222.151840 119.346634,222.152161 119.542358,222.197540 
z"/>
<path fill="#FBF7EA" opacity="1.000000" stroke="none" 
	d="
M152.416260,142.234955 
	C152.768814,142.392685 152.751709,142.703186 152.331482,143.151520 
	C152.051025,142.983902 152.090439,142.683365 152.416260,142.234955 
z"/>
<path fill="#F46D13" opacity="1.000000" stroke="none" 
	d="
M103.889572,165.222290 
	C103.852249,165.212952 103.859894,165.273743 103.827347,165.285660 
	C103.794807,165.297577 104.039246,165.237549 103.983795,165.196655 
	C103.928345,165.155762 103.926888,165.231644 103.889572,165.222290 
z"/>
<path fill="#FBF7EA" opacity="1.000000" stroke="none" 
	d="
M108.549057,168.468781 
	C108.581467,168.523575 108.516655,168.413986 108.549057,168.468781 
z"/>
<path fill="#E9E9E9" opacity="1.000000" stroke="none" 
	d="
M332.827759,162.133331 
	C317.161957,165.683456 302.892792,156.612946 300.163239,141.720886 
	C297.517639,127.287025 307.447327,113.568001 322.222137,111.243843 
	C336.558044,108.988731 349.753723,119.404045 351.718750,134.525421 
	C353.256592,146.359467 345.826996,157.417191 332.827759,162.133331 
M302.961182,138.317245 
	C304.154175,152.877060 317.127380,162.771927 330.782288,159.536850 
	C342.462158,156.769699 350.260193,145.755798 348.677734,134.261520 
	C346.996368,122.048683 336.395081,113.297760 324.243134,114.091736 
	C312.093323,114.885574 303.366730,124.447662 302.961182,138.317245 
z"/>
<path fill="#573219" opacity="1.000000" stroke="none" 
	d="
M141.628357,289.525909 
	C150.413116,289.294464 159.197968,289.066956 167.982590,288.830353 
	C175.452744,288.629211 182.923050,288.431519 190.392136,288.195526 
	C191.501694,288.160492 192.604904,287.923553 194.443298,287.684998 
	C193.335419,285.040955 192.330093,282.848389 191.486694,280.595276 
	C186.133316,266.293610 184.635590,251.421371 186.583664,236.438400 
	C188.634308,220.666443 191.808716,205.041824 194.432724,189.342896 
	C197.189758,172.848038 195.809647,156.999496 187.342041,142.128876 
	C185.151672,138.282196 183.774887,133.972260 182.275009,129.337433 
	C182.932220,128.417664 183.338806,128.035538 183.745407,127.653427 
	C186.177414,132.953186 188.700638,138.213531 191.012039,143.565384 
	C192.803482,147.713333 194.747452,151.865402 195.894714,156.208206 
	C199.087936,168.295975 198.093277,180.498749 195.930862,192.624634 
	C195.100311,197.282043 193.711227,201.837387 192.743881,206.474106 
	C192.347336,208.374863 192.463730,210.376892 192.215729,212.316101 
	C192.005447,213.960495 191.687225,215.602310 191.260117,217.203476 
	C191.012939,218.130081 190.180740,218.943604 190.079346,219.859756 
	C188.311188,235.835587 185.886566,251.860458 190.022812,267.789337 
	C191.447327,273.275177 194.234222,278.402191 195.740753,283.874237 
	C196.393127,286.243805 195.380005,289.071930 195.194794,290.962830 
	C191.289230,290.962830 188.339539,290.943573 185.390182,290.966095 
	C171.491959,291.072205 157.593872,291.199249 143.695511,291.279266 
	C142.883972,291.283936 142.070450,290.941864 141.023041,290.440491 
	C141.068268,289.921844 141.348312,289.723877 141.628357,289.525909 
z"/>
<path fill="#FDE1BA" opacity="1.000000" stroke="none" 
	d="
M131.862518,284.996185 
	C131.718323,285.303894 131.574112,285.611603 131.159698,286.351227 
	C130.046906,288.170227 129.204315,289.557343 128.361725,290.944458 
	C127.479713,291.261658 126.597687,291.578888 125.267464,291.643311 
	C124.489510,291.239960 124.159752,291.089386 123.913025,290.627502 
	C124.896103,289.191650 125.796150,288.067078 126.830490,286.760803 
	C126.964767,286.579102 127.050186,286.135437 127.345535,285.877014 
	C127.771034,281.402130 127.901184,277.185638 128.019440,272.985809 
	C128.007523,273.002441 128.040375,272.971741 128.032150,272.646729 
	C127.377159,271.526184 126.730385,270.730621 126.041046,269.948151 
	C125.998489,269.961212 126.079384,269.917694 126.033951,269.572083 
	C120.712883,263.061188 113.279694,261.897400 106.752457,266.218323 
	C106.507332,266.183441 106.018105,266.106842 105.988304,265.632812 
	C105.866806,264.532532 105.775108,263.906342 105.784370,263.085693 
	C106.099777,262.662567 106.196579,262.391815 106.376648,261.953796 
	C107.030914,261.687897 107.484268,261.547180 108.277397,261.463196 
	C112.706757,261.421326 116.796349,261.322693 120.933769,261.139038 
	C120.981606,261.054016 120.850502,261.198517 121.057480,261.452972 
	C122.494492,262.154388 123.724518,262.601349 124.954544,263.048309 
	C124.954544,263.048309 124.996010,263.001373 125.096161,263.314606 
	C126.137352,264.401978 127.078400,265.176086 128.019440,265.950226 
	C128.019440,265.950226 127.999603,266.001129 128.084946,266.240540 
	C128.434418,266.671570 128.698563,266.863251 128.962692,267.054901 
	C128.962692,267.054901 128.991364,266.995667 129.015289,267.349060 
	C129.993057,269.165527 130.946899,270.628601 131.900742,272.091644 
	C131.900742,272.091644 131.972168,271.995636 131.941833,272.437347 
	C131.895172,276.918091 131.878845,280.957153 131.862518,284.996185 
z"/>
<path fill="#F9EDDB" opacity="1.000000" stroke="none" 
	d="
M183.872482,127.341156 
	C183.338806,128.035538 182.932220,128.417664 182.293060,128.963516 
	C176.922638,122.161888 179.866653,114.495110 179.911407,106.199242 
	C183.089188,110.815048 185.795532,114.746086 188.486969,118.966446 
	C186.981247,121.846817 185.490402,124.437851 183.872482,127.341156 
z"/>
<path fill="#FEE5CD" opacity="1.000000" stroke="none" 
	d="
M105.683411,263.280121 
	C105.775108,263.906342 105.866806,264.532532 105.766571,265.876282 
	C98.874550,272.638062 97.341599,278.637665 101.148979,284.220215 
	C101.414017,284.682892 101.667877,284.883942 101.906021,285.076477 
	C101.890312,285.067932 101.892708,285.104309 101.920494,285.445374 
	C103.844490,287.634735 105.740692,289.483063 107.648331,291.346161 
	C107.659752,291.360931 107.654640,291.399689 107.880417,291.621338 
	C108.471397,292.523254 108.836609,293.203491 109.201820,293.883728 
	C107.868095,293.973267 106.534363,294.062805 104.820236,294.090240 
	C99.741814,289.211853 96.086609,284.114105 96.765266,276.713837 
	C97.218010,271.776947 99.332840,268.116455 103.288406,264.540588 
	C104.435036,263.872742 105.059219,263.576416 105.683411,263.280121 
z"/>
<path fill="#FBE4C6" opacity="1.000000" stroke="none" 
	d="
M141.537048,289.095337 
	C141.348312,289.723877 141.068268,289.921844 140.624130,290.314423 
	C139.319931,290.611755 138.179840,290.714478 136.565109,290.503601 
	C136.078018,289.472656 136.065567,288.755341 136.053116,288.038025 
	C136.053116,288.038025 136.011215,287.995117 136.294922,287.822144 
	C136.770081,286.792816 136.961563,285.936432 137.153030,285.080048 
	C137.153030,285.080048 137.017517,284.990509 137.331024,284.872437 
	C137.720078,284.166870 137.795639,283.579315 137.871201,282.991791 
	C138.023849,280.710022 138.005585,278.398987 138.389984,276.156952 
	C138.640778,274.694214 139.476303,273.331787 140.049881,271.924408 
	C140.515167,272.064453 140.980438,272.204468 141.445724,272.344482 
	C141.445724,277.784576 141.445724,283.224640 141.537048,289.095337 
z"/>
<path fill="#543320" opacity="1.000000" stroke="none" 
	d="
M120.978409,292.526215 
	C118.861160,297.233246 116.206871,297.817291 110.468445,294.445496 
	C113.236877,293.384003 115.707634,292.781372 118.510254,292.173340 
	C119.502380,292.084259 120.162651,292.000519 120.858826,292.069885 
	C120.894737,292.223022 120.978409,292.526215 120.978409,292.526215 
z"/>
<path fill="#E7772D" opacity="1.000000" stroke="none" 
	d="
M135.623505,288.019592 
	C136.065567,288.755341 136.078018,289.472656 136.223541,290.528900 
	C133.895416,290.973511 131.434219,291.079193 128.667374,291.064636 
	C129.204315,289.557343 130.046906,288.170227 131.132828,286.606018 
	C132.648727,286.952972 133.921295,287.477081 135.623505,288.019592 
z"/>
<path fill="#E57428" opacity="1.000000" stroke="none" 
	d="
M118.178391,292.178711 
	C115.707634,292.781372 113.236877,293.384003 110.393356,294.098907 
	C110.020584,294.211182 109.599274,294.073486 109.400543,293.978607 
	C108.836609,293.203491 108.471397,292.523254 108.305573,291.506653 
	C111.729439,291.506439 114.953918,291.842590 118.178391,292.178711 
z"/>
<path fill="#E57428" opacity="1.000000" stroke="none" 
	d="
M126.696205,286.942474 
	C125.796150,288.067078 124.896103,289.191650 123.721733,290.789551 
	C123.329216,291.568268 123.211014,291.873688 123.092804,292.179077 
	C122.618828,292.233917 122.144836,292.288727 121.324631,292.434875 
	C120.978409,292.526215 120.894737,292.223022 120.911118,291.691803 
	C120.930969,287.129517 124.193413,287.555450 126.696205,286.942474 
z"/>
<path fill="#543320" opacity="1.000000" stroke="none" 
	d="
M123.245239,292.386475 
	C123.211014,291.873688 123.329216,291.568268 123.638702,291.100830 
	C124.159752,291.089386 124.489510,291.239960 124.913910,291.649445 
	C124.471596,292.136841 123.934631,292.365387 123.245239,292.386475 
z"/>
<path fill="#FA6604" opacity="1.000000" stroke="none" 
	d="
M107.937622,261.406464 
	C107.484268,261.547180 107.030914,261.687897 106.095825,261.907410 
	C105.425507,261.971558 105.236938,261.956970 105.048363,261.942352 
	C105.020935,261.199615 104.993500,260.456848 105.296143,259.199188 
	C110.207825,254.557785 115.882301,256.488800 121.100792,255.892426 
	C121.100792,255.892426 120.998451,255.941055 121.122696,256.144135 
	C121.825844,256.316833 122.404747,256.286469 122.983658,256.256134 
	C123.544067,256.378632 124.104485,256.501129 124.785217,257.096313 
	C124.905540,257.569000 124.849815,258.009338 124.849808,258.009338 
	C124.563126,258.807770 124.276451,259.606232 123.591301,260.724609 
	C122.412056,261.095856 121.631279,261.147186 120.850502,261.198517 
	C120.850502,261.198517 120.981606,261.054016 120.755035,260.797699 
	C116.201805,258.941833 111.867523,257.231354 107.937622,261.406464 
z"/>
<path fill="#E7772D" opacity="1.000000" stroke="none" 
	d="
M113.043846,209.973953 
	C112.779213,206.742508 112.514572,203.511078 112.373184,199.667175 
	C112.541534,198.698135 112.586624,198.341583 112.631706,197.985016 
	C112.631706,197.985016 112.875000,197.969681 112.993408,197.998566 
	C113.394547,201.790787 113.677292,205.554123 113.692978,209.722763 
	C113.425926,210.128067 113.043846,209.973953 113.043846,209.973953 
z"/>
<path fill="#E7772D" opacity="1.000000" stroke="none" 
	d="
M134.222321,246.834412 
	C132.410629,244.231262 130.858612,241.428925 129.265076,238.283325 
	C133.650375,239.221344 133.526932,243.254379 134.222321,246.834412 
z"/>
<path fill="#E7772D" opacity="1.000000" stroke="none" 
	d="
M132.191559,284.786316 
	C131.878845,280.957153 131.895172,276.918091 131.893402,272.472504 
	C135.649673,276.052521 134.446884,280.295837 132.191559,284.786316 
z"/>
<path fill="#E7772D" opacity="1.000000" stroke="none" 
	d="
M125.269028,258.027954 
	C124.849815,258.009338 124.905540,257.569000 124.934525,257.349243 
	C126.111740,256.522949 127.259964,255.916397 128.589203,255.018539 
	C129.338943,254.215012 129.907700,253.702805 130.743210,253.082001 
	C131.107941,256.628052 129.463135,258.454559 125.269028,258.027954 
z"/>
<path fill="#E7772D" opacity="1.000000" stroke="none" 
	d="
M116.868301,216.968842 
	C116.233337,216.424652 115.661705,215.453583 114.866608,213.995453 
	C114.525833,213.226425 114.323555,213.033417 114.036339,212.929382 
	C114.036339,212.929382 114.008522,212.996964 114.022240,212.650513 
	C114.020020,211.871002 114.004082,211.437927 113.988144,211.004852 
	C117.650459,211.425247 116.890694,214.196426 116.868301,216.968842 
z"/>
<path fill="#E7772D" opacity="1.000000" stroke="none" 
	d="
M131.944672,271.703369 
	C130.946899,270.628601 129.993057,269.165527 128.991821,267.372498 
	C129.959183,268.466705 130.973907,269.890900 131.944672,271.703369 
z"/>
<path fill="#FEEACE" opacity="1.000000" stroke="none" 
	d="
M113.904457,210.826065 
	C114.004082,211.437927 114.020020,211.871002 114.053253,212.631210 
	C113.553925,212.097519 113.037292,211.236710 112.782257,210.174927 
	C113.043846,209.973953 113.425926,210.128067 113.621948,210.190277 
	C113.817963,210.252472 113.820770,210.647278 113.904457,210.826065 
z"/>
<path fill="#E7772D" opacity="1.000000" stroke="none" 
	d="
M128.016510,265.581299 
	C127.078400,265.176086 126.137352,264.401978 125.081032,263.341736 
	C125.981705,263.774536 126.997650,264.493439 128.016510,265.581299 
z"/>
<path fill="#E7772D" opacity="1.000000" stroke="none" 
	d="
M121.057480,261.452972 
	C121.631279,261.147186 122.412056,261.095856 123.583267,261.059631 
	C124.253586,261.553162 124.533463,262.031555 124.883942,262.779144 
	C123.724518,262.601349 122.494492,262.154388 121.057480,261.452972 
z"/>
<path fill="#E7772D" opacity="1.000000" stroke="none" 
	d="
M133.164642,250.903122 
	C133.057068,250.339478 133.258728,249.804779 133.707977,249.112335 
	C133.795013,249.613739 133.634460,250.272919 133.164642,250.903122 
z"/>
<path fill="#E7772D" opacity="1.000000" stroke="none" 
	d="
M122.746788,226.196167 
	C122.120567,225.932632 121.571510,225.300018 120.991150,224.344452 
	C121.581215,224.623352 122.202583,225.225220 122.746788,226.196167 
z"/>
<path fill="#E7772D" opacity="1.000000" stroke="none" 
	d="
M136.850342,285.244629 
	C136.961563,285.936432 136.770081,286.792816 136.310211,287.846191 
	C136.210419,287.165192 136.379028,286.287201 136.850342,285.244629 
z"/>
<path fill="#E7772D" opacity="1.000000" stroke="none" 
	d="
M114.061371,193.417938 
	C114.093536,193.041382 114.492805,192.892609 114.698807,192.837830 
	C114.720924,193.704514 114.537048,194.625977 113.964523,195.518494 
	C113.575890,195.489548 113.405106,195.163513 113.405106,195.163513 
	C113.613136,194.707184 113.821167,194.250839 114.061371,193.417938 
z"/>
<path fill="#E7772D" opacity="1.000000" stroke="none" 
	d="
M137.634430,283.178833 
	C137.795639,283.579315 137.720078,284.166870 137.392532,284.925049 
	C137.226257,284.519104 137.311951,283.942505 137.634430,283.178833 
z"/>
<path fill="#E7772D" opacity="1.000000" stroke="none" 
	d="
M124.942253,229.850006 
	C124.554329,229.695374 124.192513,229.209854 123.827545,228.413147 
	C124.205711,228.574341 124.587036,229.046738 124.942253,229.850006 
z"/>
<path fill="#E7772D" opacity="1.000000" stroke="none" 
	d="
M123.821724,227.869934 
	C123.567841,227.950012 123.258980,227.756332 122.905334,227.281509 
	C123.162621,227.198975 123.464676,227.397568 123.821724,227.869934 
z"/>
<path fill="#E7772D" opacity="1.000000" stroke="none" 
	d="
M128.899750,266.812744 
	C128.698563,266.863251 128.434418,266.671570 128.111633,266.234741 
	C128.399719,266.067993 128.660980,266.261658 128.899750,266.812744 
z"/>
<path fill="#FEEACE" opacity="1.000000" stroke="none" 
	d="
M113.305099,195.306183 
	C113.405106,195.163513 113.575890,195.489548 113.632919,195.664459 
	C113.689949,195.839386 113.370804,195.990372 113.208000,196.058533 
	C113.042824,195.887573 113.096123,195.661621 113.305099,195.306183 
z"/>
<path fill="#E7772D" opacity="1.000000" stroke="none" 
	d="
M132.140671,251.889938 
	C132.040649,251.650024 132.204285,251.329544 132.636215,250.940552 
	C132.737762,251.184494 132.571045,251.496933 132.140671,251.889938 
z"/>
<path fill="#FEE5C4" opacity="1.000000" stroke="none" 
	d="
M106.808655,153.714767 
	C103.991203,156.272919 101.173752,158.831070 97.750237,161.675873 
	C93.417824,162.262299 89.691467,162.562057 85.965111,162.861816 
	C85.240166,162.560532 84.515213,162.259232 83.290619,161.693756 
	C82.211800,161.252243 81.632629,161.074890 81.053467,160.897537 
	C81.053467,160.897537 81.012794,160.995422 80.922302,160.695541 
	C80.198380,159.973236 79.564941,159.550812 78.931503,159.128387 
	C78.931503,159.128387 78.975410,159.057129 78.888199,158.761108 
	C78.183350,158.010971 77.565712,157.556854 76.948074,157.102753 
	C76.948074,157.102753 76.950310,157.019791 76.819817,156.769806 
	C76.117844,156.020340 75.546364,155.520844 74.974884,155.021347 
	C74.974884,155.021347 74.837204,154.548279 74.678055,153.977905 
	C73.922241,151.616882 73.325569,149.826218 72.757683,147.628571 
	C72.668167,146.148315 72.549858,145.075043 72.516357,143.737946 
	C72.577217,143.290924 72.553261,143.107742 72.625160,142.714020 
	C72.721008,142.503464 72.682198,142.042450 72.779968,141.671936 
	C72.919334,140.536789 72.960930,139.772141 73.001572,139.004059 
	C73.000610,139.000610 73.007149,138.998856 73.299339,138.796875 
	C74.382195,137.960953 75.172859,137.327011 75.342110,137.191315 
	C75.923172,141.994324 76.467110,146.490494 77.098755,151.221771 
	C77.249947,151.611649 77.313438,151.766403 77.381226,152.258545 
	C79.404823,156.535690 82.307716,159.180084 87.360916,159.356995 
	C95.863007,160.628464 102.417946,156.737457 104.831123,149.375854 
	C107.008354,142.734024 103.727158,135.337189 96.819534,131.694550 
	C91.421806,131.216171 86.305069,130.991959 80.861412,130.753403 
	C86.489807,125.463974 92.737991,126.899239 99.190804,128.983566 
	C99.326431,129.095215 99.669113,129.172775 99.857430,129.425049 
	C100.623825,129.892365 101.201904,130.107407 101.742371,130.247803 
	C101.704750,130.173141 101.727058,130.338852 101.842682,130.609894 
	C102.601105,131.297775 103.243904,131.714630 103.936539,132.069519 
	C103.986374,132.007553 103.866730,132.112366 103.910225,132.404449 
	C104.476402,133.234360 104.999077,133.772202 105.559723,134.308380 
	C105.597679,134.306702 105.615150,134.380661 105.649513,134.705170 
	C106.345367,136.185959 107.006866,137.342239 107.665390,138.645233 
	C107.662422,138.791962 107.849174,139.018402 107.859261,139.377518 
	C108.232323,140.837433 108.595299,141.938248 108.980301,143.022430 
	C109.002327,143.005814 108.949432,143.019867 108.895943,143.424500 
	C108.560371,146.219955 108.278282,148.610764 107.998253,151.000793 
	C108.000305,151.000000 107.999626,150.995041 107.751854,151.158722 
	C107.352371,151.881958 107.200661,152.441498 106.955750,153.168320 
	C106.862556,153.335602 106.808655,153.714767 106.808655,153.714767 
z"/>
<path fill="#EB7629" opacity="1.000000" stroke="none" 
	d="
M100.626404,168.271866 
	C101.371742,169.590134 101.857368,171.172379 102.579041,173.019653 
	C103.147354,174.333725 103.479630,175.382751 103.976860,177.002304 
	C104.355095,177.877319 104.568382,178.181793 104.781670,178.486282 
	C104.937271,179.034073 105.092865,179.581863 105.468277,180.321091 
	C106.120041,181.484085 106.551987,182.455643 107.229607,183.941132 
	C107.973824,184.982025 108.472366,185.509003 108.970909,186.035980 
	C108.970909,186.035980 109.000778,186.000702 108.995087,186.327850 
	C109.073578,187.065750 109.157753,187.476501 109.241928,187.887268 
	C107.505791,186.112717 105.015717,184.630753 104.189941,182.502930 
	C102.452843,178.026794 101.588974,173.211777 100.626404,168.271866 
z"/>
<path fill="#EF731E" opacity="1.000000" stroke="none" 
	d="
M109.867638,192.143433 
	C109.417915,196.712692 108.609207,201.429840 107.867615,206.937103 
	C108.246666,208.633713 108.558594,209.540207 108.870514,210.446701 
	C108.960815,211.375229 109.051117,212.303757 109.127510,213.583817 
	C108.080322,211.511475 106.011024,208.989868 106.228607,206.684021 
	C106.686943,201.826523 108.343689,197.082108 109.867638,192.143433 
z"/>
<path fill="#F66A0E" opacity="1.000000" stroke="none" 
	d="
M72.431549,144.001770 
	C72.549858,145.075043 72.668167,146.148315 72.543480,147.894058 
	C72.548225,150.366699 72.795959,152.166870 73.043686,153.967041 
	C72.577156,153.976715 72.110626,153.986389 71.293137,154.001877 
	C70.639099,153.536774 70.336029,153.065872 70.217613,152.121948 
	C70.303322,150.049103 69.891708,148.383026 70.211739,146.871933 
	C70.437431,145.806305 71.656174,144.950989 72.431549,144.001770 
z"/>
<path fill="#EB7629" opacity="1.000000" stroke="none" 
	d="
M104.501160,225.989960 
	C104.115051,225.434448 104.014198,225.053421 103.901825,224.376892 
	C106.385460,225.391052 108.880623,226.700699 111.755775,228.077209 
	C108.369995,232.369705 106.972717,227.802490 104.501160,225.989960 
z"/>
<path fill="#F46D13" opacity="1.000000" stroke="none" 
	d="
M105.430664,160.975311 
	C105.816872,161.448868 105.835899,161.945908 105.756813,162.803864 
	C104.535713,163.623077 103.412735,164.081360 102.093369,164.781097 
	C100.965157,164.594513 100.033310,164.166443 99.033859,163.409897 
	C100.998657,162.387207 103.031067,161.692993 105.430664,160.975311 
z"/>
<path fill="#F46D13" opacity="1.000000" stroke="none" 
	d="
M86.191223,163.165878 
	C89.691467,162.562057 93.417824,162.262299 97.560120,161.948761 
	C97.974854,162.123383 97.973633,162.311768 97.977341,162.783356 
	C94.189041,164.970917 90.336937,165.187851 86.191223,163.165878 
z"/>
<path fill="#FEEACE" opacity="1.000000" stroke="none" 
	d="
M109.442322,188.004974 
	C109.157753,187.476501 109.073578,187.065750 108.975815,186.340332 
	C109.977654,187.429825 110.993088,188.833969 112.006912,190.619980 
	C112.005310,191.001831 111.571960,191.013641 111.278442,190.724945 
	C110.666222,189.939331 110.347527,189.442444 110.028831,188.945541 
	C110.019653,188.615173 109.890953,188.340881 109.442322,188.004974 
z"/>
<path fill="#EB7629" opacity="1.000000" stroke="none" 
	d="
M73.306503,153.986206 
	C72.795959,152.166870 72.548225,150.366699 72.514694,148.301041 
	C73.325569,149.826218 73.922241,151.616882 74.569206,153.756897 
	C74.269440,154.072632 73.919388,154.039017 73.306503,153.986206 
z"/>
<path fill="#EB7629" opacity="1.000000" stroke="none" 
	d="
M78.984261,159.446564 
	C79.564941,159.550812 80.198380,159.973236 80.956490,160.655029 
	C80.399780,160.531174 79.718407,160.147964 78.984261,159.446564 
z"/>
<path fill="#EB7629" opacity="1.000000" stroke="none" 
	d="
M76.991302,157.411179 
	C77.565712,157.556854 78.183350,158.010971 78.846344,158.760864 
	C78.272652,158.610962 77.653587,158.165283 76.991302,157.411179 
z"/>
<path fill="#EB7629" opacity="1.000000" stroke="none" 
	d="
M75.005913,155.337723 
	C75.546364,155.520844 76.117844,156.020340 76.784897,156.792236 
	C76.265961,156.594467 75.651451,156.124283 75.005913,155.337723 
z"/>
<path fill="#EF731E" opacity="1.000000" stroke="none" 
	d="
M110.072845,216.240814 
	C110.512535,216.644516 110.912483,217.406830 111.306259,218.504318 
	C110.877754,218.092789 110.455421,217.346100 110.072845,216.240814 
z"/>
<path fill="#EB7629" opacity="1.000000" stroke="none" 
	d="
M81.204041,161.187622 
	C81.632629,161.074890 82.211800,161.252243 82.996078,161.661652 
	C82.585670,161.755035 81.970139,161.616364 81.204041,161.187622 
z"/>
<path fill="#EF731E" opacity="1.000000" stroke="none" 
	d="
M109.072937,214.238159 
	C109.437782,214.389084 109.780869,214.856522 110.138931,215.628952 
	C109.786339,215.474182 109.418762,215.014420 109.072937,214.238159 
z"/>
<path fill="#EB7629" opacity="1.000000" stroke="none" 
	d="
M110.025192,189.396271 
	C110.347527,189.442444 110.666222,189.939331 111.061874,190.733948 
	C111.138832,191.031677 110.788445,191.347977 110.593460,191.479950 
	C110.272835,191.023605 110.147186,190.435303 110.025192,189.396271 
z"/>
<path fill="#EB7629" opacity="1.000000" stroke="none" 
	d="
M112.957878,227.168076 
	C113.039879,227.412994 112.847023,227.724014 112.377792,228.097260 
	C112.295288,227.851044 112.489151,227.542618 112.957878,227.168076 
z"/>
<path fill="#E7772D" opacity="1.000000" stroke="none" 
	d="
M120.772110,255.632767 
	C115.882301,256.488800 110.207825,254.557785 105.286453,258.827637 
	C104.186485,258.974304 103.426270,258.977600 102.286476,258.938232 
	C107.378136,253.997742 113.843956,254.333740 120.772110,255.632767 
z"/>
<path fill="#E7772D" opacity="1.000000" stroke="none" 
	d="
M104.698311,262.017029 
	C105.236938,261.956970 105.425507,261.971558 105.894913,262.032562 
	C106.196579,262.391815 106.099777,262.662567 105.784370,263.085693 
	C105.059219,263.576416 104.435036,263.872742 103.479462,264.267334 
	C103.548141,263.607635 103.948204,262.849701 104.698311,262.017029 
z"/>
<path fill="#E7772D" opacity="1.000000" stroke="none" 
	d="
M100.268280,259.962646 
	C100.417198,259.604950 100.877617,259.241364 101.637894,258.872772 
	C101.485100,259.230774 101.032440,259.593781 100.268280,259.962646 
z"/>
<path fill="#FEEACE" opacity="1.000000" stroke="none" 
	d="
M108.903381,210.064423 
	C108.558594,209.540207 108.246666,208.633713 107.976501,207.365997 
	C108.324257,207.897217 108.630249,208.789688 108.903381,210.064423 
z"/>
<path fill="#FEEACE" opacity="1.000000" stroke="none" 
	d="
M114.088913,213.130493 
	C114.323555,213.033417 114.525833,213.226425 114.667908,213.720596 
	C114.440437,213.795212 114.256714,213.594803 114.088913,213.130493 
z"/>
<path fill="#FEEACE" opacity="1.000000" stroke="none" 
	d="
M112.471924,198.200378 
	C112.586624,198.341583 112.541534,198.698135 112.309860,199.262482 
	C112.186234,199.118759 112.249184,198.767242 112.471924,198.200378 
z"/>
<path fill="#FEEACE" opacity="1.000000" stroke="none" 
	d="
M108.976608,185.737564 
	C108.472366,185.509003 107.973824,184.982025 107.455795,184.175262 
	C107.951637,184.410049 108.466972,184.924591 108.976608,185.737564 
z"/>
<path fill="#FB6606" opacity="1.000000" stroke="none" 
	d="
M107.849174,139.018402 
	C107.849174,139.018402 107.662422,138.791962 107.754890,138.250244 
	C107.103287,136.599258 106.359215,135.489960 105.615143,134.380661 
	C105.615150,134.380661 105.597679,134.306702 105.680450,133.966583 
	C105.131058,133.121765 104.498894,132.617065 103.866730,132.112366 
	C103.866730,132.112366 103.986374,132.007553 103.933197,131.716309 
	C103.162361,131.063004 102.444710,130.700928 101.727058,130.338852 
	C101.727058,130.338852 101.704750,130.173141 101.641586,129.915802 
	C100.941978,129.496552 100.305550,129.334671 99.669113,129.172775 
	C99.669113,129.172775 99.326431,129.095215 99.100876,128.618912 
	C94.042938,124.598381 84.115479,125.323837 79.046394,129.392273 
	C77.599846,130.553268 75.711739,131.164108 74.013062,132.013794 
	C74.000008,132.000381 73.972900,131.973495 73.972900,131.973495 
	C75.551140,129.860107 77.129379,127.746712 78.884247,125.356384 
	C87.235748,121.444435 95.214355,122.818520 103.496613,126.078735 
	C104.363136,126.734177 104.854317,127.333054 105.647644,127.998901 
	C106.375648,128.397339 106.801498,128.728821 107.483017,129.161469 
	C108.030365,129.734131 108.322060,130.205627 108.885910,130.753906 
	C109.158058,130.830704 109.134186,130.849869 109.172981,131.116272 
	C109.500275,131.569550 109.788773,131.756424 110.077271,131.943314 
	C110.077271,131.943314 110.005875,131.998184 110.095474,132.201965 
	C110.360588,132.707581 110.614532,132.912033 110.946892,133.019119 
	C110.946892,133.019119 111.151741,133.320129 111.170227,133.500641 
	C111.137741,134.839706 110.687393,136.171402 111.102158,137.128036 
	C113.387718,142.399658 113.180435,147.738159 111.983528,153.594894 
	C111.993118,154.027374 111.894234,154.504761 111.823212,154.737518 
	C110.168739,154.788742 108.585281,154.607178 106.905243,154.070190 
	C106.808655,153.714767 106.862556,153.335602 107.193512,152.993179 
	C107.682854,152.098846 107.841240,151.546951 107.999626,150.995041 
	C107.999626,150.995041 108.000305,151.000000 108.331848,150.826538 
	C108.758743,148.108658 108.854088,145.564270 108.949432,143.019867 
	C108.949432,143.019867 109.002327,143.005814 109.019089,142.648010 
	C108.640289,141.199600 108.244736,140.108994 107.849174,139.018402 
z"/>
<path fill="#FB6606" opacity="1.000000" stroke="none" 
	d="
M72.516357,143.737946 
	C71.656174,144.950989 70.437431,145.806305 70.211739,146.871933 
	C69.891708,148.383026 70.303322,150.049103 70.195389,151.829041 
	C66.360680,144.918793 67.700348,136.756500 73.617180,132.020645 
	C73.972900,131.973495 74.000008,132.000381 73.970551,132.400940 
	C73.629776,134.867294 73.318466,136.933075 73.007149,138.998856 
	C73.007149,138.998856 73.000610,139.000610 72.737595,139.213043 
	C72.313141,140.298965 72.151688,141.172470 72.040924,142.214417 
	C72.183678,142.606903 72.329582,142.787476 72.529312,142.924576 
	C72.553261,143.107742 72.577217,143.290924 72.516357,143.737946 
z"/>
<path fill="#E7772D" opacity="1.000000" stroke="none" 
	d="
M122.688347,256.096069 
	C122.404747,256.286469 121.825844,256.316833 121.157402,256.099365 
	C121.509590,255.879669 121.951317,255.907837 122.688347,256.096069 
z"/>
<path fill="#FEEACE" opacity="1.000000" stroke="none" 
	d="
M104.797058,178.198471 
	C104.568382,178.181793 104.355095,177.877319 104.153137,177.288055 
	C104.380455,177.305740 104.596443,177.608200 104.797058,178.198471 
z"/>
<path fill="#EB7629" opacity="1.000000" stroke="none" 
	d="
M110.932289,132.749023 
	C110.614532,132.912033 110.360588,132.707581 110.121117,132.164978 
	C110.344009,132.109131 110.630844,132.294037 110.932289,132.749023 
z"/>
<path fill="#EB7629" opacity="1.000000" stroke="none" 
	d="
M110.014755,131.688782 
	C109.788773,131.756424 109.500275,131.569550 109.165558,131.118286 
	C109.396973,131.047348 109.674606,131.240784 110.014755,131.688782 
z"/>
<path fill="#363636" opacity="1.000000" stroke="none" 
	d="
M302.947510,137.879211 
	C303.366730,124.447662 312.093323,114.885574 324.243134,114.091736 
	C336.395081,113.297760 346.996368,122.048683 348.677734,134.261520 
	C350.260193,145.755798 342.462158,156.769699 330.782288,159.536850 
	C317.127380,162.771927 304.154175,152.877060 302.947510,137.879211 
z"/>
<path fill="#FB6705" opacity="1.000000" stroke="none" 
	d="
M126.830490,286.760803 
	C124.193413,287.555450 120.930969,287.129517 120.875206,291.538696 
	C120.162651,292.000519 119.502380,292.084259 118.510254,292.173340 
	C114.953918,291.842590 111.729439,291.506439 108.079796,291.284973 
	C107.654640,291.399689 107.659752,291.360931 107.733505,290.980591 
	C105.835754,288.768280 103.864235,286.936279 101.892715,285.104309 
	C101.892708,285.104309 101.890312,285.067932 101.867645,284.835449 
	C101.696342,284.292572 101.460617,284.077789 101.137810,283.958588 
	C97.341599,278.637665 98.874550,272.638062 105.796371,266.350342 
	C106.018105,266.106842 106.507332,266.183441 107.007904,266.431183 
	C112.820358,264.929474 118.074936,263.102936 122.414230,268.830292 
	C123.034233,269.648621 124.828545,269.577271 126.079391,269.917694 
	C126.079384,269.917694 125.998489,269.961212 126.006477,270.308167 
	C126.689774,271.427307 127.365074,272.199524 128.040375,272.971741 
	C128.040375,272.971741 128.007523,273.002441 127.992844,273.433899 
	C127.668839,277.955414 127.359512,282.045410 127.050186,286.135437 
	C127.050186,286.135437 126.964767,286.579102 126.830490,286.760803 
z"/>
<path fill="#E57428" opacity="1.000000" stroke="none" 
	d="
M126.033951,269.572083 
	C124.828545,269.577271 123.034233,269.648621 122.414230,268.830292 
	C118.074936,263.102936 112.820358,264.929474 107.253021,266.466064 
	C113.279694,261.897400 120.712883,263.061188 126.033951,269.572083 
z"/>
<path fill="#E7772D" opacity="1.000000" stroke="none" 
	d="
M108.277397,261.463196 
	C111.867523,257.231354 116.201805,258.941833 120.707199,260.882721 
	C116.796349,261.322693 112.706757,261.421326 108.277397,261.463196 
z"/>
<path fill="#E57428" opacity="1.000000" stroke="none" 
	d="
M127.345535,285.877014 
	C127.359512,282.045410 127.668839,277.955414 128.004761,273.417297 
	C127.901184,277.185638 127.771034,281.402130 127.345535,285.877014 
z"/>
<path fill="#E57428" opacity="1.000000" stroke="none" 
	d="
M128.032150,272.646729 
	C127.365074,272.199524 126.689774,271.427307 126.049042,270.295105 
	C126.730385,270.730621 127.377159,271.526184 128.032150,272.646729 
z"/>
<path fill="#E57428" opacity="1.000000" stroke="none" 
	d="
M101.920502,285.445374 
	C103.864235,286.936279 105.835754,288.768280 107.722084,290.965820 
	C105.740692,289.483063 103.844490,287.634735 101.920502,285.445374 
z"/>
<path fill="#E57428" opacity="1.000000" stroke="none" 
	d="
M101.148979,284.220215 
	C101.460617,284.077789 101.696342,284.292572 101.883362,284.843964 
	C101.667877,284.883942 101.414017,284.682892 101.148979,284.220215 
z"/>
<path fill="#F66A0E" opacity="1.000000" stroke="none" 
	d="
M97.100540,131.948715 
	C103.727158,135.337189 107.008354,142.734024 104.831123,149.375854 
	C102.417946,156.737457 95.863007,160.628464 87.186050,159.057632 
	C83.573753,156.353973 80.475342,154.137573 77.376938,151.921173 
	C77.313438,151.766403 77.249947,151.611649 77.106071,150.772827 
	C77.022217,148.609863 76.981430,147.129913 77.021515,145.652161 
	C77.227463,138.059479 82.315239,132.353409 89.772842,131.646225 
	C92.184166,131.417557 94.656250,131.829712 97.100540,131.948715 
z"/>
<path fill="#EB7629" opacity="1.000000" stroke="none" 
	d="
M96.819534,131.694550 
	C94.656250,131.829712 92.184166,131.417557 89.772842,131.646225 
	C82.315239,132.353409 77.227463,138.059479 77.021515,145.652161 
	C76.981430,147.129913 77.022217,148.609863 77.018372,150.537720 
	C76.467110,146.490494 75.923172,141.994324 75.342110,137.191315 
	C75.172859,137.327011 74.382195,137.960953 73.299339,138.796875 
	C73.318466,136.933075 73.629776,134.867294 73.983597,132.414368 
	C75.711739,131.164108 77.599846,130.553268 79.046394,129.392273 
	C84.115479,125.323837 94.042938,124.598381 98.965240,128.507263 
	C92.737991,126.899239 86.489807,125.463974 80.861412,130.753403 
	C86.305069,130.991959 91.421806,131.216171 96.819534,131.694550 
z"/>
<path fill="#EB7629" opacity="1.000000" stroke="none" 
	d="
M77.381226,152.258545 
	C80.475342,154.137573 83.573753,156.353973 86.847031,158.869720 
	C82.307716,159.180084 79.404823,156.535690 77.381226,152.258545 
z"/>
<path fill="#EB7629" opacity="1.000000" stroke="none" 
	d="
M108.895935,143.424500 
	C108.854088,145.564270 108.758743,148.108658 108.329803,150.827316 
	C108.278282,148.610764 108.560371,146.219955 108.895935,143.424500 
z"/>
<path fill="#EB7629" opacity="1.000000" stroke="none" 
	d="
M105.649506,134.705170 
	C106.359215,135.489960 107.103287,136.599258 107.757858,138.103516 
	C107.006866,137.342239 106.345367,136.185959 105.649506,134.705170 
z"/>
<path fill="#EB7629" opacity="1.000000" stroke="none" 
	d="
M107.859261,139.377518 
	C108.244736,140.108994 108.640289,141.199600 108.997055,142.664612 
	C108.595299,141.938248 108.232323,140.837433 107.859261,139.377518 
z"/>
<path fill="#EB7629" opacity="1.000000" stroke="none" 
	d="
M103.910217,132.404449 
	C104.498894,132.617065 105.131058,133.121765 105.642487,133.968262 
	C104.999077,133.772202 104.476402,133.234360 103.910217,132.404449 
z"/>
<path fill="#EB7629" opacity="1.000000" stroke="none" 
	d="
M101.842682,130.609894 
	C102.444710,130.700928 103.162361,131.063004 103.883362,131.778275 
	C103.243904,131.714630 102.601105,131.297775 101.842682,130.609894 
z"/>
<path fill="#EB7629" opacity="1.000000" stroke="none" 
	d="
M71.990234,142.045975 
	C72.151688,141.172470 72.313141,140.298965 72.738556,139.216476 
	C72.960930,139.772141 72.919334,140.536789 72.607025,141.672546 
	C72.336304,142.043655 71.990234,142.045975 71.990234,142.045975 
z"/>
<path fill="#EB7629" opacity="1.000000" stroke="none" 
	d="
M99.857430,129.425049 
	C100.305550,129.334671 100.941978,129.496552 101.679199,129.990448 
	C101.201904,130.107407 100.623825,129.892365 99.857430,129.425049 
z"/>
<path fill="#EB7629" opacity="1.000000" stroke="none" 
	d="
M107.751854,151.158722 
	C107.841240,151.546951 107.682854,152.098846 107.286705,152.825897 
	C107.200661,152.441498 107.352371,151.881958 107.751854,151.158722 
z"/>
<path fill="#F66A0E" opacity="1.000000" stroke="none" 
	d="
M72.040924,142.214417 
	C71.990234,142.045975 72.336304,142.043655 72.509247,142.043060 
	C72.682198,142.042450 72.721008,142.503464 72.625160,142.714020 
	C72.329582,142.787476 72.183678,142.606903 72.040924,142.214417 
z"/>
</svg>